<svg width="108" height="106" viewBox="0 0 108 106" fill="none" xmlns="http://www.w3.org/2000/svg">
<path d="M61.581 20.6875C65.0738 20.6875 68.5666 20.6875 72.1652 20.6875C72.1652 24.0215 72.1652 27.3556 72.1652 30.7907C72.9567 30.7869 73.7482 30.7831 74.5637 30.7792C77.181 30.7672 79.7983 30.7593 82.4156 30.7533C84.0023 30.7495 85.5889 30.7444 87.1755 30.7362C88.7071 30.7284 90.2387 30.7241 91.7704 30.7222C92.3543 30.7209 92.9381 30.7183 93.522 30.7144C94.3408 30.7091 95.1596 30.7084 95.9784 30.7087C96.2189 30.7061 96.4594 30.7035 96.7072 30.7009C98.6495 30.7094 100.325 31.0464 101.753 32.4745C102.843 34.0504 102.991 35.343 102.983 37.2172C102.983 37.4285 102.983 37.6398 102.983 37.8575C102.983 38.5551 102.981 39.2528 102.979 39.9504C102.979 40.4344 102.979 40.9184 102.978 41.4024C102.977 42.6758 102.975 43.9492 102.972 45.2226C102.969 46.7507 102.968 48.2789 102.967 49.807C102.965 52.1281 102.96 54.4491 102.956 56.7702C99.463 56.7702 95.9702 56.7702 92.3715 56.7702C92.3715 51.6898 92.3715 46.6093 92.3715 41.3749C75.5426 41.3749 58.7136 41.3749 41.3747 41.3749C41.3747 58.2039 41.3747 75.0328 41.3747 92.3718C48.1221 92.3718 54.8696 92.3718 61.8215 92.3718C61.8215 95.8646 61.8215 99.3574 61.8215 102.956C58.3734 102.972 54.9252 102.986 51.477 102.993C49.8758 102.997 48.2747 103.002 46.6735 103.01C45.1278 103.018 43.5822 103.023 42.0365 103.025C41.4472 103.026 40.858 103.028 40.2688 103.032C39.4424 103.038 38.6162 103.038 37.7899 103.038C37.4258 103.042 37.4258 103.042 37.0543 103.046C35.1055 103.037 33.4266 102.706 31.9932 101.272C31.1487 100.051 30.7598 98.9799 30.7615 97.5059C30.7612 97.2819 30.7608 97.0579 30.7605 96.8272C30.7618 96.4612 30.7618 96.4612 30.7631 96.0879C30.7631 95.8297 30.763 95.5714 30.763 95.3054C30.7632 94.4515 30.765 93.5977 30.7669 92.7439C30.7674 92.152 30.7677 91.5601 30.768 90.9683C30.7689 89.4101 30.7712 87.852 30.7739 86.2939C30.7764 84.7041 30.7775 83.1143 30.7787 81.5244C30.7812 78.4048 30.7855 75.2851 30.7904 72.1655C27.4564 72.1655 24.1223 72.1655 20.6873 72.1655C20.6873 68.6727 20.6873 65.1799 20.6873 61.5812C24.0213 61.5812 27.3553 61.5812 30.7904 61.5812C30.7866 60.7897 30.7829 59.9982 30.779 59.1828C30.767 56.5654 30.759 53.9481 30.753 51.3308C30.7493 49.7442 30.7442 48.1576 30.736 46.571C30.7281 45.0393 30.7238 43.5077 30.7219 41.9761C30.7206 41.3922 30.718 40.8083 30.7141 40.2244C30.7089 39.4056 30.7082 38.5869 30.7085 37.7681C30.7059 37.5275 30.7033 37.287 30.7006 37.0392C30.7092 35.097 31.0462 33.4215 32.4743 31.9934C33.6953 31.149 34.7666 30.76 36.2406 30.7617C36.4646 30.7614 36.6885 30.7611 36.9193 30.7607C37.1632 30.7616 37.4072 30.7625 37.6586 30.7633C37.9168 30.7633 38.175 30.7633 38.4411 30.7632C39.2949 30.7634 40.1487 30.7653 41.0026 30.7672C41.5944 30.7676 42.1863 30.768 42.7782 30.7682C44.3363 30.7691 45.8944 30.7715 47.4526 30.7741C49.0424 30.7766 50.6322 30.7777 52.222 30.7789C55.3417 30.7815 58.4613 30.7857 61.581 30.7907C61.581 27.4566 61.581 24.1226 61.581 20.6875Z" fill="#332948"/>
<path d="M71.9246 56.5298C72.8266 56.8819 73.6487 57.2831 74.4899 57.7645C74.7564 57.9168 75.023 58.069 75.2976 58.2259C75.5865 58.3922 75.8754 58.5585 76.1643 58.7248C76.4661 58.8979 76.7678 59.0709 77.0696 59.2439C79.375 60.5684 81.6638 61.92 83.9483 63.2803C86.0592 64.5358 88.1827 65.7679 90.3117 66.9924C92.768 68.4051 95.2155 69.8324 97.6618 71.2621C98.4084 71.698 99.1555 72.133 99.9028 72.5678C101.107 73.2687 102.311 73.9714 103.514 74.6756C103.929 74.9182 104.345 75.1603 104.761 75.4017C105.283 75.7045 105.803 76.0095 106.323 76.3151C106.473 76.4014 106.623 76.4877 106.778 76.5766C107.116 76.7768 107.443 76.995 107.767 77.2172C107.767 77.376 107.767 77.5347 107.767 77.6983C100.384 79.8416 100.384 79.8416 92.8526 82.0282C93.9639 83.9334 95.0753 85.8386 96.2203 87.8015C96.9649 89.0875 97.7079 90.3743 98.4487 91.6626C99.1616 92.9015 99.8761 94.1393 100.599 95.3726C100.938 95.9513 101.276 96.5307 101.614 97.1102C101.854 97.5211 102.096 97.931 102.337 98.341C102.482 98.5886 102.626 98.8362 102.774 99.0914C102.903 99.3098 103.031 99.5283 103.163 99.7533C103.437 100.31 103.437 100.31 103.437 101.032C103.039 101.25 103.039 101.25 102.633 101.473C102.265 101.677 101.896 101.881 101.527 102.084C101.334 102.191 101.14 102.297 100.941 102.407C99.93 102.968 98.9293 103.539 97.9427 104.141C97.7592 104.252 97.5758 104.364 97.3868 104.479C97.0353 104.693 96.6852 104.911 96.3369 105.13C95.1604 105.847 95.1604 105.847 94.5347 105.828C93.8201 105.491 93.6255 105.011 93.2463 104.325C93.0943 104.054 92.9422 103.783 92.7856 103.504C92.6225 103.206 92.4594 102.908 92.2963 102.61C92.1257 102.304 91.9548 101.998 91.7835 101.693C91.4302 101.062 91.0782 100.43 90.727 99.798C89.9485 98.4007 89.1448 97.018 88.3422 95.6344C86.7896 92.9484 85.2478 90.2563 83.7116 87.5609C82.7748 87.9407 82.1524 88.5811 81.4602 89.2927C81.338 89.4162 81.2158 89.5396 81.0898 89.6668C80.6997 90.0612 80.3112 90.4572 79.9229 90.8534C79.4138 91.3714 78.904 91.8886 78.3932 92.4048C78.2698 92.5296 78.1464 92.6543 78.0193 92.7828C77.1985 93.6068 76.3518 94.3845 75.4667 95.1382C74.6927 95.8113 73.9888 96.5522 73.2735 97.2868C72.9882 97.5769 72.6975 97.8616 72.4057 98.1452C72.3263 98.1452 72.2469 98.1452 72.1652 98.1452C71.917 93.6121 71.892 89.087 71.9002 84.549C71.9017 83.5599 71.9019 82.5708 71.9021 81.5817C71.9029 79.7187 71.9048 77.8557 71.9073 75.9927C71.91 73.8675 71.9113 71.7423 71.9125 69.6171C71.915 65.2546 71.9192 60.8922 71.9246 56.5298Z" fill="#332948"/>
<path d="M0 61.5811C3.4928 61.5811 6.98561 61.5811 10.5843 61.5811C10.5843 65.0739 10.5843 68.5667 10.5843 72.1653C7.09145 72.1653 3.59865 72.1653 0 72.1653C0 68.6725 0 65.1797 0 61.5811Z" fill="#332948"/>
<path d="M61.5811 0C65.0739 0 68.5667 0 72.1653 0C72.1653 3.4928 72.1653 6.98561 72.1653 10.5843C68.6725 10.5843 65.1797 10.5843 61.5811 10.5843C61.5811 7.09145 61.5811 3.59865 61.5811 0Z" fill="#332948"/>
<path d="M0 0C3.4928 0 6.98561 0 10.5843 0C10.5843 3.4928 10.5843 6.98561 10.5843 10.5843C7.09145 10.5843 3.59865 10.5843 0 10.5843C0 7.09145 0 3.59865 0 0Z" fill="#332948"/>
<path d="M0 41.1343C3.4928 41.1343 6.98561 41.1343 10.5843 41.1343C10.5843 44.5477 10.5843 47.9611 10.5843 51.478C7.09145 51.478 3.59865 51.478 0 51.478C0 48.0646 0 44.6511 0 41.1343Z" fill="#332948"/>
<path d="M0 20.6875C3.4928 20.6875 6.98561 20.6875 10.5843 20.6875C10.5843 24.1009 10.5843 27.5143 10.5843 31.0312C7.09145 31.0312 3.59865 31.0312 0 31.0312C0 27.6178 0 24.2044 0 20.6875Z" fill="#332948"/>
<path d="M41.1343 0C44.5477 0 47.9611 0 51.478 0C51.478 3.4928 51.478 6.98561 51.478 10.5843C48.0646 10.5843 44.6511 10.5843 41.1343 10.5843C41.1343 7.09145 41.1343 3.59865 41.1343 0Z" fill="#332948"/>
<path d="M20.6873 0C24.1007 0 27.5141 0 31.031 0C31.031 3.4928 31.031 6.98561 31.031 10.5843C27.6175 10.5843 24.2041 10.5843 20.6873 10.5843C20.6873 7.09145 20.6873 3.59865 20.6873 0Z" fill="#332948"/>
</svg>
