<svg width="400" height="282" viewBox="0 0 400 282" fill="none" xmlns="http://www.w3.org/2000/svg">
<path d="M88.537 28.0089C89.6198 28.0437 90.7025 28.1087 91.7853 28.1088C186.836 28.1135 281.886 28.1252 376.937 28.0705C380.893 28.0683 384.848 27.4421 388.884 27.3034C389.099 27.6822 389.199 27.9762 389.373 28.0301C396.58 30.2557 398.1 32.3043 398.1 39.8579C398.101 95.6701 398.101 151.482 398.099 207.294C398.098 215.112 394.804 218.399 386.989 218.399C346.005 218.4 305.02 218.4 264.035 218.396C263.118 218.396 262.201 218.348 261.261 218.093C261.124 211.091 261.011 204.318 261.049 197.461C262.697 195.607 262.763 193.748 261.849 191.639C261.479 190.788 261.71 189.676 261.795 188.573C262.591 187.65 263.466 186.932 263.895 186.008C266.977 179.367 269.911 172.657 273.017 166.027C274.36 163.163 274.064 160.69 272.384 158.043C268.372 151.724 264.539 145.292 260.761 138.747C265.26 137.618 265.26 137.618 265.26 133.041C265.26 127.398 265.249 121.754 265.264 116.111C265.27 113.868 264.216 112.732 261.948 112.739C258.793 112.748 255.637 112.784 252.483 112.714C251.547 112.693 250.618 112.356 249.742 112.004C255.5 103.845 253.378 97.6072 244.024 94.8107C241.33 94.0054 238.656 93.1352 236.025 92.0604C236.078 79.6756 236.078 67.5252 236.078 55.3257C260.268 55.3257 284.088 55.3257 307.828 55.3257C307.937 55.6003 307.995 55.6779 307.995 55.7555C308.045 102.893 308.091 150.03 308.14 197.167C308.14 197.415 308.163 197.669 308.216 197.911C308.25 198.065 308.347 198.212 308.439 198.345C308.481 198.405 308.579 198.439 308.658 198.459C308.731 198.478 308.813 198.463 309.341 198.463C309.341 150.76 309.341 103.063 309.341 54.9216C330.97 54.9216 352.151 54.9216 373.333 54.9216C373.334 54.6012 373.334 54.2808 373.335 53.9604C352.103 53.9604 330.87 53.9604 309.178 53.9604C309.178 48.2479 309.178 43.0412 309.178 37.8345C308.862 37.8332 308.546 37.8319 308.23 37.8307C308.23 43.0706 308.23 48.3104 308.23 53.6017C283.934 53.6017 260.119 53.6017 235.842 53.6017C235.842 48.2075 235.842 43.0021 235.842 37.7967C235.534 37.8014 235.225 37.8061 234.917 37.8109C234.917 43.0522 234.917 48.2934 234.917 53.6129C210.631 53.6129 186.807 53.6129 162.492 53.6129C162.492 48.2347 162.492 43.0363 162.492 37.838C162.169 37.8379 161.845 37.8378 161.522 37.8377C161.522 43.0608 161.522 48.2839 161.522 53.9975C133.558 53.9975 106.07 53.9975 78.5825 53.9975C78.5724 54.2884 78.5623 54.5793 78.5522 54.8702C79.5614 54.9563 80.5706 55.117 81.5799 55.1176C107.21 55.1314 132.839 55.1224 158.469 55.1508C159.499 55.152 160.529 55.4802 161.533 55.8895C161.504 102.783 161.5 149.444 161.501 196.104C161.501 196.684 161.569 197.265 161.588 197.982C161.813 198.227 162.057 198.336 162.3 198.445C162.373 198.245 162.445 198.045 162.56 197.615C162.61 151.64 162.617 105.897 162.62 60.153C162.62 58.6541 162.582 57.1553 162.723 55.5149C163.703 55.2917 164.523 55.1393 165.343 55.1389C187.504 55.1259 209.665 55.1687 231.826 55.0723C234.294 55.0616 234.891 55.8084 234.843 58.1688C234.695 65.4101 234.809 72.6563 234.781 79.9004C234.766 83.9755 234.673 88.0504 234.418 92.1235C233.531 91.9288 232.838 91.7422 232.149 91.5419C226.404 89.8715 221.83 92.9477 221.578 98.5859C221.427 101.977 223.144 104.416 225.342 106.848C225.044 112.326 227.258 116.364 232.008 118.441C234.505 119.534 235.14 120.905 234.806 123.254C234.748 123.661 234.771 124.079 234.572 124.496C232.592 125.447 230.55 126.107 229.046 127.395C224.236 131.515 219.673 135.922 214.896 140.082C213.997 140.866 212.563 141.386 211.362 141.414C205.526 141.548 199.686 141.444 193.848 141.492C191.941 141.508 190.037 141.731 187.906 141.821C185.703 141.637 183.718 141.557 181.75 141.333C177.743 140.877 176.175 141.876 174.789 145.768C173.651 145.776 172.734 145.812 171.819 145.781C169.956 145.719 169.048 146.552 169.055 148.456C169.078 155.2 169.073 161.944 169.058 168.688C169.054 170.436 169.85 171.313 171.62 171.311C176.951 171.303 182.283 171.354 187.614 171.288C190.169 171.257 191.097 170.172 191.104 167.524C191.117 162.112 191.11 156.7 191.325 151.261C198.464 152.184 205.408 153.02 212.308 154.131C215.964 154.719 218.837 153.9 221.155 150.965C222.417 149.366 223.88 147.926 225.57 146.065C225.57 147.39 225.627 148.185 225.561 148.969C224.608 160.247 223.609 171.52 222.721 182.803C222.641 183.815 223.251 184.882 223.514 186.13C223.535 187.168 223.583 188 223.55 189.01C223.59 190.896 223.711 192.602 223.797 194.537C223.88 197.126 223.999 199.486 224.036 202.025C224.075 203.913 224.196 205.622 224.283 207.561C224.367 210.147 224.485 212.504 224.518 215.044C224.434 216.214 224.434 217.201 224.434 218.42C223.27 218.42 222.286 218.42 221.302 218.42C181.339 218.429 141.376 218.439 101.323 218.249C101.206 215.801 101.273 213.548 101.138 211.307C100.448 199.851 99.9182 188.378 98.8481 176.956C98.5383 173.65 96.6252 170.493 95.4506 167.071C94.0936 161.959 92.7333 157.043 91.3729 152.128C92.9111 152.476 94.0192 153.134 95.0549 153.891C97.1149 155.398 99.2894 155.685 101.631 154.668C106.347 152.621 111.062 150.571 115.828 148.5C115.672 147.861 115.537 147.307 115.573 146.678C117.256 146.497 118.768 146.392 120.277 146.52C120.27 151.748 120.306 156.742 120.244 161.735C120.216 163.942 121.11 164.91 123.368 164.878C128.613 164.803 133.861 164.802 139.106 164.877C141.456 164.91 142.42 163.914 142.399 161.591C142.343 155.35 142.328 149.107 142.407 142.865C142.437 140.528 141.511 139.524 139.164 139.551C134.585 139.604 130.005 139.537 125.336 139.399C121.506 135.478 120.76 135.44 116.254 138.59C115.04 139.44 113.716 140.134 112.239 140.868C110.762 141.111 109.443 141.255 108.225 141.684C105.496 142.646 102.81 143.733 100.119 144.801C98.6248 145.395 97.5566 145.059 97.1601 143.487C100.709 143.273 100.988 143.008 100.994 139.821C101.004 133.743 101.007 127.665 100.992 121.586C100.984 118.692 100.516 118.219 97.6727 118.194C93.4247 118.157 89.1765 118.147 84.9371 117.925C84.9324 115.226 84.9191 112.728 84.9032 110.008C85.8112 104.228 81.3704 100.04 76.5208 99.1651C70.744 98.1223 65.4059 99.3651 60.6294 102.761C54.6748 106.995 53.1823 115.303 58.0772 120.677C61.0551 123.946 60.7892 126.703 57.7931 129.96C56.6309 131.224 55.165 132.208 53.8419 133.081C53.8408 101.089 53.8341 69.3354 53.8316 37.5817C53.8314 34.4043 54.9231 31.7809 57.6588 29.9453C58.0252 29.6995 58.1431 29.0836 58.3675 28.6287C58.3589 28.6184 58.37 28.6427 58.4848 28.8161C59.8337 28.6987 61.0796 28.4467 62.2899 28.0778C62.4869 28.0177 62.526 27.4401 62.8517 27.1495C68.5345 27.2081 74.0056 27.1336 79.4719 27.2634C82.4978 27.3353 85.5156 27.7492 88.537 28.0089ZM251.859 80.4411C251.86 84.195 251.904 87.9496 251.844 91.7025C251.81 93.879 252.719 94.9842 254.942 94.9779C260.284 94.9627 265.626 94.9674 270.968 94.9751C273.009 94.978 274.049 94.0607 274.04 91.9409C274.009 85.4343 274.021 78.9275 274.031 72.4208C274.034 70.4293 273.066 69.5723 271.087 69.5869C265.662 69.6268 260.236 69.633 254.811 69.5844C252.803 69.5664 251.875 70.4861 251.867 72.4332C251.858 74.9357 251.861 77.4383 251.859 80.4411ZM107.202 79.7618C104.114 79.7627 101.027 79.7823 97.939 79.7577C96.0272 79.7425 94.9371 80.5033 94.9424 82.5503C94.9595 89.1395 94.9637 95.7289 94.9389 102.318C94.9318 104.203 95.8663 105.117 97.6749 105.125C103.266 105.151 108.858 105.153 114.449 105.124C116.15 105.115 117.045 104.23 117.041 102.462C117.025 95.7891 117.025 89.1164 117.04 82.4438C117.044 80.5173 116.013 79.7593 114.212 79.764C112.042 79.7696 109.872 79.7631 107.202 79.7618ZM190.863 117.743C192.783 117.743 194.703 117.707 196.622 117.751C198.695 117.799 199.691 116.918 199.676 114.769C199.629 108.262 199.634 101.754 199.674 95.2459C199.686 93.2045 198.675 92.3719 196.757 92.3722C191.331 92.3728 185.905 92.371 180.478 92.3743C178.577 92.3755 177.532 93.1789 177.544 95.2343C177.584 101.742 177.586 108.25 177.542 114.758C177.528 116.898 178.523 117.777 180.596 117.752C183.851 117.712 187.107 117.743 190.863 117.743ZM320.649 70.8578C320.568 78.1046 320.453 85.3513 320.431 92.5983C320.426 94.4139 321.774 94.9572 323.355 94.9624C328.698 94.9801 334.04 94.9604 339.382 94.9765C341.558 94.983 342.534 94.0207 342.507 91.7675C342.431 85.4278 342.437 79.0862 342.505 72.7463C342.529 70.5183 341.647 69.5525 339.395 69.5792C334.053 69.6426 328.71 69.5623 323.369 69.6397C322.535 69.6517 321.709 70.1875 320.649 70.8578ZM356.964 112.742C351.713 112.742 346.463 112.75 341.212 112.737C339.084 112.731 337.913 113.727 337.907 115.883C337.887 122.297 337.893 128.711 337.904 135.125C337.908 137.138 338.96 138.238 340.966 138.251C346.3 138.286 351.634 138.282 356.967 138.252C358.919 138.241 360.01 137.443 359.978 135.222C359.885 128.809 359.889 122.394 359.98 115.982C360.007 114.047 359.363 112.964 356.964 112.742ZM139.767 79.6955C137.266 79.6957 134.765 79.7013 132.264 79.6946C130.126 79.6889 129 80.7232 128.997 82.8809C128.989 89.296 128.987 95.7111 128.999 102.126C129.003 104.01 129.973 105.169 131.858 105.191C137.359 105.256 142.862 105.254 148.363 105.185C150.065 105.164 151.088 104.351 151.066 102.375C150.992 95.877 151.042 89.3781 151.036 82.8797C151.034 80.7179 149.906 79.6897 147.769 79.6948C145.269 79.7008 142.768 79.6957 139.767 79.6955ZM285.055 105.109C283.637 105.109 282.215 105.179 280.803 105.094C278.577 104.961 277.639 105.867 277.671 108.158C277.757 114.49 277.743 120.825 277.678 127.158C277.655 129.357 278.482 130.379 280.756 130.352C286.092 130.287 291.429 130.301 296.765 130.344C298.85 130.361 299.824 129.499 299.81 127.363C299.766 120.946 299.765 114.529 299.811 108.112C299.827 106.001 298.924 105.068 296.81 105.097C293.058 105.149 289.305 105.11 285.055 105.109ZM364.701 75.6719C361.452 75.672 358.202 75.7272 354.955 75.6525C352.868 75.6045 351.892 76.4082 351.912 78.5752C351.968 84.8187 351.943 91.0631 351.925 97.3071C351.919 99.545 352.928 100.724 355.222 100.721C360.553 100.714 365.884 100.698 371.215 100.73C373.074 100.741 373.989 99.9569 373.983 98.0524C373.96 91.4754 373.961 84.8982 373.982 78.3213C373.989 76.407 373.049 75.6238 371.198 75.6633C369.2 75.7059 367.2 75.6722 364.701 75.6719ZM332.648 47.1186C339.228 47.1186 345.809 47.1203 352.389 47.1159C353.054 47.1154 353.89 47.3218 354.347 47.0031C355.139 46.45 355.697 45.5613 356.353 44.8134C355.629 44.2574 354.911 43.2266 354.18 43.2176C345.185 43.1065 336.188 43.0938 327.194 43.2349C326.422 43.247 325.669 44.5352 324.907 45.2306C325.656 45.858 326.333 46.8792 327.168 47.0288C328.782 47.3182 330.484 47.1166 332.648 47.1186ZM257.137 43.56C255.817 45.6873 256.591 47.0641 259.272 47.0988C264.275 47.1634 269.279 47.1185 274.282 47.1185C277.952 47.1185 281.628 47.2347 285.285 47.0302C286.148 46.9819 286.951 45.8519 287.781 45.2195C287.014 44.5277 286.253 43.2411 285.48 43.2346C276.15 43.1566 266.818 43.2677 257.137 43.56ZM183.194 45.74C184.254 46.1995 185.304 47.0307 186.374 47.0563C191.951 47.1898 197.534 47.1196 203.115 47.1182C206.113 47.1175 209.125 47.2624 212.103 47.015C212.951 46.9445 213.704 45.7284 214.5 45.0376C213.675 44.4054 212.858 43.236 212.023 43.2234C203.196 43.0903 194.365 43.1402 185.536 43.1428C184.072 43.1432 183.145 43.7505 183.194 45.74ZM121.231 43.1394C116.643 43.1398 112.052 43.0458 107.472 43.2245C106.61 43.2581 105.228 44.2613 105.069 45.0224C104.752 46.5382 106.023 47.1184 107.463 47.1181C116.137 47.1164 124.813 47.1858 133.483 47.0211C134.446 47.0029 136.074 45.7415 136.178 44.9054C136.355 43.4844 134.916 43.0942 133.491 43.1175C129.572 43.1817 125.652 43.1395 121.231 43.1394Z" fill="#FEFEFE"/>
<path d="M95.4471 167.268C96.6252 170.493 98.5382 173.65 98.848 176.956C99.9182 188.378 100.448 199.851 101.138 211.307C101.273 213.548 101.206 215.801 101.322 218.411C101.425 218.989 101.439 219.205 101.344 219.592C100.651 235.417 100.027 251.07 99.523 266.727C99.4422 269.236 98.7277 270.753 95.7789 270.68C93.495 270.644 91.441 270.674 89.1844 270.659C86.6096 270.825 85.733 269.54 85.5377 267.364C84.8749 259.98 84.154 252.602 83.4451 245.222C82.6256 236.69 81.7953 228.159 80.9606 219.534C78.5796 219.534 76.3612 219.534 74.108 219.534C73.8264 220.428 73.5684 221.215 73.3309 222.007C69.2452 235.644 65.1232 249.27 61.116 262.93C60.4389 265.238 59.3525 266.432 56.741 265.816C54.3644 265.161 52.1194 264.633 49.8744 264.105C47.5513 263.381 47.4703 261.785 47.998 259.749C51.4966 246.251 54.9385 232.739 58.5734 218.943C58.7943 218.152 58.8406 217.65 58.9631 216.961C60.0926 212.17 61.1723 207.573 62.1932 202.963C63.7332 196.008 65.2322 189.044 66.844 181.948C67.595 180.128 68.2506 178.444 68.9319 176.723C68.9577 176.686 68.899 176.617 69.0438 176.535C69.2746 176.251 69.3606 176.049 69.5819 175.771C69.936 175.236 70.1547 174.777 70.4837 174.184C71.0266 172.976 71.4594 171.902 72.0958 170.796C80.0153 169.598 87.7312 168.433 95.4471 167.268ZM76.2792 212.044C75.674 214.097 75.0688 216.15 74.4249 218.335C76.6446 218.335 78.6639 218.335 80.8534 218.335C80.6644 216.19 80.6256 214.203 80.2598 212.277C80.0871 211.368 79.2876 210.578 78.7722 209.735C77.9729 210.381 77.1737 211.028 76.2792 212.044Z" fill="#313043"/>
<path d="M224.603 214.861C224.485 212.504 224.367 210.147 224.412 207.408C224.422 205.299 224.269 203.573 224.117 201.846C223.999 199.486 223.88 197.126 223.923 194.383C223.932 192.278 223.781 190.554 223.63 188.831C223.582 188 223.535 187.168 223.69 186.172C230.391 189.802 237.362 191.895 244.926 192.068C250.423 192.194 255.583 190.794 260.694 189.248C260.763 192.161 260.83 194.853 260.898 197.545C261.011 204.318 261.124 211.091 261.287 218.237C261.474 218.866 261.611 219.122 261.749 219.378C261.819 221.689 261.307 224.212 262.058 226.276C265.919 236.889 270.122 247.378 274.153 257.93C274.584 259.059 274.668 260.32 274.71 261.818C272.589 263.03 270.67 263.944 268.548 264.857C266.446 265.368 265.451 264.432 264.632 262.809C260.996 255.597 257.418 248.349 253.543 241.265C250.123 235.01 247.286 228.611 246.381 221.476C246.3 220.837 246.101 220.212 245.948 219.543C244.601 219.543 243.392 219.543 242.096 219.543C241.988 220.14 241.874 220.617 241.819 221.101C240.105 236.08 238.431 251.063 236.62 266.029C236.474 267.239 235.387 268.335 234.502 269.464C232.214 269.464 230.16 269.483 227.961 269.404C227.324 267.977 226.459 266.665 226.401 265.319C225.777 250.775 225.288 236.226 224.729 221.68C224.699 220.907 224.371 220.145 224.268 219.212C224.437 217.651 224.52 216.256 224.603 214.861ZM242.213 218.085C243.344 218.262 244.474 218.439 245.605 218.615C245.737 218.361 245.87 218.106 246.002 217.852C245.356 217.258 244.764 216.299 244.044 216.191C243.519 216.112 242.826 217.155 242.213 218.085Z" fill="#323043"/>
<path d="M88.5483 27.8082C85.5155 27.7492 82.4977 27.3353 79.4718 27.2634C74.0056 27.1336 68.5344 27.2081 62.6393 27.1385C60.9321 27.6007 59.6511 28.1217 58.37 28.6427C58.37 28.6427 58.3589 28.6184 58.2036 28.5273C54.0862 30.4153 52.6708 33.838 52.6494 38.0234C52.6038 46.893 52.5788 55.7628 52.5453 64.6325C46.1434 64.3563 40.6119 61.7788 35.7823 57.8063C29.6184 52.7364 25.4149 46.3128 24.1516 38.3149C22.5527 28.1927 24.7564 18.9791 31.5528 11.1328C36.6193 5.28377 42.9317 1.46472 50.7003 0.400512C60.8353 -0.987874 69.923 1.14928 77.7612 8.13172C83.693 13.4159 86.85 20.07 88.5483 27.8082Z" fill="#F1F1F1"/>
<path d="M70.3735 174.318C70.1547 174.777 69.936 175.236 69.4366 175.853C69.0704 176.213 68.9847 176.415 68.899 176.617C68.899 176.617 68.9577 176.686 68.7561 176.758C67.5 178.136 66.4454 179.442 65.2343 180.835C64.1836 180.646 63.0617 180.62 62.4342 180.051C59.514 177.4 56.7306 174.599 53.8145 171.712C53.4025 171.316 53.0744 171.06 52.7463 170.804C51.0418 168.436 50.7998 165.969 51.4103 163.057C52.1351 159.6 52.1434 155.993 52.7323 152.316C56.9797 152.28 60.9759 152.66 64.9289 152.395C68.5832 152.15 70.6121 149.623 71.4275 146.109C72.2763 142.451 70.8983 139.264 69.4743 136.04C68.6479 134.17 68.06 132.194 67.5743 130.256C71.4824 130.077 75.181 129.907 79.0435 129.8C81.2327 131.383 83.2758 132.881 85.2793 134.429C89.1806 137.445 93.0598 140.489 96.9482 143.522C97.5566 145.059 98.6248 145.395 100.119 144.801C102.81 143.733 105.496 142.646 108.225 141.684C109.443 141.255 110.762 141.111 112.241 141.049C113.432 143.092 114.417 144.923 115.402 146.753C115.537 147.307 115.672 147.861 115.828 148.5C111.062 150.571 106.347 152.621 101.631 154.668C99.2894 155.685 97.1149 155.398 95.0548 153.891C94.0192 153.134 92.9111 152.476 91.3729 152.128C92.7332 157.043 94.0936 161.959 95.4506 167.071C87.7312 168.433 80.0154 169.598 72.0563 170.627C68.811 166.615 65.8088 162.739 62.7835 158.834C60.233 162.412 60.3645 164.463 63.1333 167.328C64.6302 168.877 65.984 170.566 67.5044 172.09C68.3527 172.941 69.4103 173.582 70.3735 174.318Z" fill="#CCCCCC"/>
<path d="M67.3647 130.265C68.06 132.194 68.6479 134.17 69.4744 136.04C70.8983 139.264 72.2764 142.451 71.4276 146.109C70.6121 149.623 68.5832 152.15 64.9289 152.395C60.976 152.66 56.9797 152.28 52.8225 152.076C49.9865 150.319 47.4279 148.586 47.0921 144.867C47.1436 144.349 47.0757 144.079 47.0078 143.81C47.0299 143.438 47.0519 143.066 47.2856 142.442C47.5416 141.803 47.5861 141.416 47.6305 141.029C49.2579 138.892 50.8853 136.755 52.755 134.439C53.2773 133.946 53.5574 133.633 53.8374 133.32C55.1649 132.208 56.6309 131.224 57.7931 129.96C60.7892 126.703 61.0551 123.946 58.0772 120.677C53.1823 115.303 54.6748 106.995 60.6294 102.761C65.4059 99.3651 70.744 98.1223 76.5208 99.1651C81.3703 100.04 85.8112 104.228 84.7833 110.13C83.7877 113.312 81.6139 114.661 78.95 115.446C76.4849 116.173 74.8567 117.404 75.2741 120.395C75.5485 122.36 74.4126 123.653 72.5064 124.247C71.7333 124.488 70.9854 124.81 70.0558 125.14C67.8236 126.272 66.9283 127.939 67.3647 130.265Z" fill="#323043"/>
<path d="M261.98 219.425C261.611 219.122 261.474 218.866 261.31 218.467C262.201 218.348 263.118 218.396 264.035 218.396C305.02 218.4 346.005 218.4 386.989 218.399C394.804 218.399 398.098 215.112 398.099 207.294C398.101 151.482 398.101 95.6701 398.1 39.8579C398.1 32.3043 396.58 30.2557 389.373 28.0301C389.199 27.9762 389.099 27.6822 389.101 27.2973C394.938 27.4212 398.906 31.3364 399.222 36.9549C399.254 37.5374 399.243 38.1226 399.243 38.7065C399.244 95.1043 399.246 151.502 399.241 207.9C399.24 213.902 396.638 217.752 391.633 219.109C390.605 219.387 389.496 219.471 388.424 219.472C346.353 219.484 304.282 219.477 261.98 219.425Z" fill="#626075"/>
<path d="M264.266 281.003C263.526 281.069 262.786 281.193 262.047 281.193C196.861 281.202 131.675 281.201 66.4897 281.199C66.0728 281.199 65.656 281.175 64.9783 280.956C64.5625 280.326 64.4076 279.902 64.4297 279.607C72.4737 279.8 80.3407 279.864 88.4556 279.951C93.9573 279.985 99.2112 280.016 104.465 279.981C105.264 279.976 106.06 279.663 107.029 279.629C107.859 279.823 108.52 279.933 109.18 279.933C144.45 279.942 179.721 279.945 214.991 279.917C215.86 279.916 216.729 279.567 217.739 279.546C223.986 279.799 230.092 279.884 236.432 279.959C245.699 279.956 254.73 279.962 263.895 280.045C264.108 280.416 264.187 280.709 264.266 281.003Z" fill="#56546A"/>
<path d="M268.861 278.878C269.748 279.216 270.633 279.844 271.521 279.847C287.551 279.907 303.581 279.891 319.61 279.891C332.05 279.891 344.49 279.886 356.93 279.9C357.846 279.901 358.762 280.03 359.678 280.1C359.692 280.368 359.706 280.636 359.72 280.905C359.079 281.003 358.437 281.188 357.796 281.188C327.406 281.189 297.016 281.175 266.448 280.9C267.133 280.051 267.997 279.465 268.861 278.878Z" fill="#56546A"/>
<path d="M53.8418 133.081C53.5573 133.633 53.2773 133.946 52.8753 134.306C52.7237 122.603 52.6865 110.853 52.6666 99.1038C52.6474 87.7695 52.646 76.4351 52.5911 64.8667C52.5788 55.7628 52.6038 46.893 52.6494 38.0234C52.6709 33.838 54.0862 30.4153 58.2122 28.5376C58.1431 29.0836 58.0252 29.6995 57.6588 29.9453C54.9231 31.7809 53.8313 34.4043 53.8316 37.5817C53.8341 69.3353 53.8408 101.089 53.8418 133.081Z" fill="#626075"/>
<path d="M62.3744 281.002C61.5515 281.068 60.7287 281.192 59.9058 281.193C40.8838 281.203 21.8618 281.204 2.83972 281.193C1.90703 281.193 0.974412 281.078 0.0417641 281.017C0.0278442 280.754 0.01392 280.491 0 280.228C0.976467 280.115 1.95282 279.906 2.92941 279.905C20.4497 279.885 37.97 279.902 55.4902 279.856C56.2907 279.853 57.0898 279.34 57.9448 278.807C59.5188 279.259 61.9434 278.355 62.3744 281.002Z" fill="#56546A"/>
<path d="M269.055 278.835C267.997 279.465 267.133 280.051 266.261 280.82C265.722 281.029 265.191 281.054 264.463 281.041C264.187 280.709 264.108 280.416 263.915 279.828C263.478 276.408 264.324 273.729 267.049 271.969C268.36 271.123 269.874 270.59 271.467 269.883C273.515 268.907 275.392 267.963 277.269 267.019C277.8 267.239 278.605 267.312 278.815 267.704C279.748 269.442 280.511 271.272 281.419 273.251C277.249 275.15 273.249 276.971 269.055 278.835Z" fill="#323043"/>
<path d="M62.5798 281.04C61.9435 278.355 59.5189 279.259 57.7955 278.608C56.9756 278.535 56.3604 278.403 55.5398 278.067C55.0179 277.847 54.7013 277.83 54.3848 277.812C54.1578 277.786 53.9307 277.76 53.5166 277.534C53.0142 277.323 52.6989 277.311 52.3836 277.298C51.002 276.963 49.6203 276.627 47.9869 276.051C47.3285 275.787 46.9219 275.763 46.5153 275.738C46.4218 275.572 46.3282 275.406 46.4268 274.989C46.6337 274.394 46.6485 274.048 46.6632 273.702C46.7932 273.084 46.9232 272.466 47.2553 271.642C47.4737 271.122 47.4901 270.807 47.5065 270.493C47.9812 269.97 48.4559 269.448 49.2809 269.008C51.5194 269.564 53.4076 270.037 55.4475 270.624C56.5516 270.989 57.5079 271.226 58.4557 271.493C62.5167 272.639 64.3735 275.202 64.2528 279.477C64.4077 279.902 64.5626 280.326 64.7921 280.876C64.1729 281.027 63.479 281.053 62.5798 281.04Z" fill="#323043"/>
<path d="M52.7343 171.04C53.0744 171.06 53.4025 171.316 53.7837 171.942C53.8311 184.476 53.8051 196.639 53.8317 208.803C53.8399 212.557 55.0732 215.655 58.887 217.147C58.8406 217.65 58.7943 218.152 58.6329 218.751C54.7131 216.509 52.6768 213.205 52.6932 208.644C52.7382 196.188 52.7172 183.731 52.7343 171.04Z" fill="#626075"/>
<path d="M277.173 266.866C275.392 267.963 273.515 268.907 271.462 269.706C270.441 267.992 269.596 266.425 268.752 264.858C270.67 263.944 272.589 263.03 274.664 262.031C275.573 263.536 276.325 265.125 277.173 266.866Z" fill="#A06770"/>
<path d="M55.2958 270.511C53.4076 270.037 51.5194 269.564 49.4638 268.994C49.4871 267.433 49.6778 265.969 49.8715 264.305C52.1194 264.633 54.3644 265.161 56.7222 266.001C56.3218 267.712 55.8088 269.111 55.2958 270.511Z" fill="#FAB5B7"/>
<path d="M46.5647 273.775C46.6484 274.048 46.6337 274.394 46.4761 274.85C46.3776 274.59 46.4219 274.219 46.5647 273.775Z" fill="#56546A"/>
<path d="M46.9201 143.88C47.0757 144.079 47.1436 144.349 47.1098 144.682C46.9495 144.48 46.891 144.215 46.9201 143.88Z" fill="#626075"/>
<path d="M46.6282 275.838C46.9218 275.763 47.3284 275.787 47.8146 275.956C47.5098 276.046 47.1255 275.992 46.6282 275.838Z" fill="#56546A"/>
<path d="M52.4855 277.399C52.6989 277.311 53.0142 277.323 53.3689 277.445C53.1347 277.536 52.8611 277.518 52.4855 277.399Z" fill="#56546A"/>
<path d="M54.4846 277.916C54.7013 277.83 55.0178 277.847 55.3725 277.977C55.1352 278.066 54.8598 278.043 54.4846 277.916Z" fill="#56546A"/>
<path d="M47.5166 141.127C47.5861 141.416 47.5416 141.803 47.363 142.272C47.2868 141.977 47.3448 141.601 47.5166 141.127Z" fill="#626075"/>
<path d="M47.4016 270.592C47.4901 270.807 47.4737 271.122 47.3471 271.476C47.2569 271.24 47.2768 270.965 47.4016 270.592Z" fill="#56546A"/>
<path d="M260.693 189.027C255.584 190.794 250.423 192.194 244.926 192.068C237.362 191.895 230.391 189.802 223.716 185.965C223.251 184.882 222.641 183.815 222.721 182.803C223.609 171.52 224.608 160.247 225.561 148.969C225.627 148.185 225.57 147.39 225.57 146.065C223.88 147.926 222.417 149.366 221.155 150.965C218.837 153.9 215.964 154.719 212.308 154.131C205.408 153.02 198.464 152.184 191.142 151.178C188.597 150.566 185.957 151.184 184.678 148.413C185.841 146.115 186.986 143.987 188.132 141.859C190.037 141.731 191.941 141.508 193.848 141.492C199.686 141.444 205.526 141.548 211.362 141.414C212.563 141.386 213.997 140.866 214.896 140.082C219.673 135.922 224.236 131.515 229.046 127.395C230.55 126.107 232.592 125.447 234.691 124.568C235.363 124.668 235.733 124.701 236.33 124.783C238.772 124.939 240.987 125.047 243.398 125.212C251.266 126.163 256.399 130.369 259.435 137.353C259.687 137.934 260.227 138.391 260.633 138.905C264.539 145.292 268.372 151.724 272.384 158.043C274.064 160.69 274.36 163.163 273.017 166.027C269.911 172.657 266.977 179.367 263.895 186.008C263.466 186.932 262.591 187.65 261.629 188.624C261.122 188.866 260.908 188.946 260.693 189.027ZM259.861 168.355C259.909 168.565 259.956 168.776 260.003 168.986C260.071 168.965 260.167 168.965 260.201 168.919C262.525 165.775 262.433 161.133 259.847 158.253C259.847 161.611 259.847 164.805 259.861 168.355Z" fill="#635FC7"/>
<path d="M161.559 55.656C160.529 55.4802 159.499 55.1519 158.469 55.1508C132.839 55.1224 107.21 55.1314 81.5799 55.1176C80.5706 55.117 79.5614 54.9563 78.5522 54.8702C78.5623 54.5793 78.5724 54.2884 78.5825 53.9975C106.07 53.9975 133.558 53.9975 161.522 53.9975C161.522 48.2839 161.522 43.0608 161.522 37.8377C161.845 37.8378 162.169 37.8379 162.492 37.838C162.492 43.0363 162.492 48.2347 162.492 53.6128C186.807 53.6128 210.631 53.6128 234.917 53.6128C234.917 48.2934 234.917 43.0521 234.917 37.8109C235.225 37.8061 235.534 37.8014 235.842 37.7967C235.842 43.0021 235.842 48.2075 235.842 53.6017C260.119 53.6017 283.934 53.6017 308.23 53.6017C308.23 48.3104 308.23 43.0705 308.23 37.8307C308.546 37.8319 308.862 37.8332 309.178 37.8344C309.178 43.0412 309.178 48.2479 309.178 53.9604C330.87 53.9604 352.102 53.9604 373.335 53.9604C373.334 54.2808 373.334 54.6012 373.333 54.9216C352.151 54.9216 330.97 54.9216 309.341 54.9216C309.341 103.063 309.341 150.76 309.341 198.463C308.813 198.463 308.731 198.478 308.658 198.459C308.579 198.439 308.481 198.405 308.439 198.345C308.347 198.212 308.25 198.065 308.216 197.911C308.163 197.669 308.14 197.415 308.14 197.167C308.091 150.03 308.045 102.893 307.995 55.7555C307.995 55.6779 307.937 55.6003 307.828 55.3257C284.088 55.3257 260.268 55.3257 236.078 55.3257C236.078 67.5252 236.078 79.6756 235.854 92.0465C235.291 92.2199 234.953 92.1726 234.614 92.1253C234.673 88.0504 234.766 83.9755 234.781 79.9004C234.809 72.6563 234.695 65.4101 234.843 58.1688C234.891 55.8084 234.294 55.0616 231.826 55.0723C209.665 55.1686 187.504 55.1259 165.343 55.1388C164.523 55.1393 163.703 55.2917 162.556 55.5128C162.005 55.6535 161.782 55.6547 161.559 55.656Z" fill="#777688"/>
<path d="M251.859 80.191C251.861 77.4383 251.858 74.9357 251.867 72.4331C251.875 70.4861 252.803 69.5664 254.811 69.5844C260.236 69.633 265.662 69.6268 271.087 69.5869C273.066 69.5723 274.034 70.4293 274.031 72.4208C274.021 78.9275 274.009 85.4343 274.039 91.9409C274.049 94.0607 273.009 94.978 270.968 94.9751C265.626 94.9674 260.284 94.9627 254.942 94.9779C252.719 94.9842 251.81 93.879 251.844 91.7025C251.904 87.9496 251.86 84.195 251.859 80.191Z" fill="#635FC7"/>
<path d="M107.452 79.7618C109.872 79.7631 112.042 79.7696 114.212 79.764C116.013 79.7593 117.044 80.5173 117.04 82.4438C117.025 89.1164 117.025 95.7891 117.041 102.462C117.045 104.23 116.15 105.115 114.449 105.124C108.858 105.153 103.266 105.151 97.6749 105.125C95.8662 105.117 94.9318 104.203 94.9389 102.318C94.9637 95.7288 94.9595 89.1395 94.9424 82.5503C94.9371 80.5033 96.0272 79.7425 97.9389 79.7577C101.027 79.7823 104.114 79.7627 107.452 79.7618Z" fill="#635FC7"/>
<path d="M190.613 117.743C187.107 117.743 183.851 117.712 180.596 117.752C178.523 117.777 177.528 116.898 177.542 114.758C177.586 108.25 177.584 101.742 177.544 95.2343C177.532 93.1789 178.577 92.3755 180.478 92.3743C185.905 92.371 191.331 92.3728 196.757 92.3722C198.675 92.3719 199.686 93.2045 199.674 95.2459C199.634 101.754 199.629 108.262 199.675 114.769C199.691 116.918 198.695 117.799 196.622 117.751C194.703 117.707 192.783 117.743 190.613 117.743Z" fill="#635FC7"/>
<path d="M320.764 70.6694C321.709 70.1875 322.535 69.6517 323.369 69.6397C328.71 69.5622 334.053 69.6426 339.395 69.5792C341.647 69.5525 342.529 70.5183 342.505 72.7463C342.437 79.0862 342.431 85.4278 342.507 91.7675C342.534 94.0207 341.558 94.983 339.382 94.9765C334.04 94.9604 328.698 94.9801 323.355 94.9624C321.774 94.9572 320.426 94.4139 320.431 92.5983C320.453 85.3513 320.568 78.1046 320.764 70.6694Z" fill="#635FC7"/>
<path d="M357.19 112.747C359.363 112.964 360.007 114.047 359.98 115.982C359.889 122.394 359.885 128.809 359.978 135.222C360.01 137.443 358.919 138.241 356.967 138.252C351.634 138.282 346.3 138.286 340.966 138.251C338.96 138.238 337.908 137.138 337.904 135.125C337.893 128.711 337.887 122.297 337.907 115.883C337.913 113.727 339.084 112.731 341.212 112.737C346.463 112.75 351.713 112.742 357.19 112.747Z" fill="#E6E6E6"/>
<path d="M140.017 79.6955C142.768 79.6957 145.269 79.7008 147.769 79.6948C149.906 79.6897 151.034 80.7178 151.036 82.8797C151.042 89.3781 150.992 95.877 151.066 102.375C151.088 104.351 150.065 105.164 148.363 105.185C142.862 105.254 137.359 105.256 131.858 105.191C129.973 105.169 129.003 104.01 128.999 102.126C128.987 95.7111 128.989 89.296 128.997 82.8809C129 80.7232 130.126 79.6889 132.264 79.6946C134.765 79.7013 137.266 79.6957 140.017 79.6955Z" fill="#E6E6E6"/>
<path d="M285.304 105.109C289.305 105.11 293.058 105.149 296.81 105.097C298.924 105.068 299.827 106.001 299.811 108.112C299.765 114.529 299.766 120.946 299.81 127.363C299.824 129.499 298.85 130.361 296.765 130.344C291.429 130.301 286.092 130.287 280.756 130.352C278.482 130.379 277.655 129.357 277.678 127.158C277.743 120.825 277.757 114.49 277.67 108.158C277.639 105.867 278.577 104.961 280.803 105.094C282.215 105.179 283.637 105.109 285.304 105.109Z" fill="#5E5F70"/>
<path d="M364.951 75.6719C367.2 75.6722 369.2 75.7059 371.198 75.6633C373.049 75.6238 373.989 76.407 373.983 78.3213C373.961 84.8982 373.96 91.4754 373.983 98.0524C373.989 99.9569 373.074 100.741 371.215 100.73C365.884 100.698 360.553 100.714 355.222 100.721C352.929 100.724 351.919 99.545 351.925 97.3071C351.943 91.0631 351.968 84.8187 351.912 78.5752C351.892 76.4082 352.868 75.6045 354.955 75.6525C358.202 75.7272 361.452 75.672 364.951 75.6719Z" fill="#E6E6E6"/>
<path d="M234.418 92.1235C234.953 92.1726 235.291 92.2199 235.801 92.2809C238.656 93.1352 241.33 94.0054 244.024 94.8107C253.379 97.6072 255.5 103.845 249.591 112.08C247.071 114.39 244.758 116.463 242.286 118.563C241.714 118.712 241.302 118.834 240.704 118.877C238.539 118.698 238.843 117.602 239.256 116.224C240.435 112.3 239.098 110.407 235.532 109.676C232.092 108.971 228.775 107.669 225.403 106.63C223.144 104.416 221.427 101.977 221.578 98.5859C221.83 92.9477 226.404 89.8715 232.149 91.5419C232.838 91.7422 233.531 91.9288 234.418 92.1235Z" fill="#323043"/>
<path d="M125.425 139.52C130.005 139.537 134.585 139.604 139.164 139.551C141.511 139.524 142.437 140.528 142.407 142.865C142.327 149.107 142.343 155.35 142.399 161.591C142.42 163.913 141.455 164.91 139.106 164.877C133.861 164.802 128.613 164.803 123.368 164.878C121.11 164.91 120.216 163.942 120.244 161.735C120.306 156.742 120.27 151.748 120.485 146.514C124.318 145.667 125.479 144.01 125.425 139.52Z" fill="#635FC7"/>
<path d="M184.661 148.584C185.957 151.184 188.597 150.566 190.928 151.206C191.11 156.7 191.117 162.112 191.104 167.524C191.097 170.172 190.169 171.257 187.614 171.288C182.283 171.354 176.951 171.303 171.62 171.311C169.85 171.313 169.054 170.436 169.058 168.688C169.073 161.944 169.078 155.2 169.055 148.456C169.048 146.552 169.956 145.719 171.819 145.781C172.734 145.812 173.651 145.776 174.838 145.957C175.755 149.491 177.732 151.326 180.645 150.761C182.071 150.485 183.328 149.337 184.661 148.584Z" fill="#E6E6E6"/>
<path d="M97.1601 143.487C93.0599 140.489 89.1807 137.445 85.2793 134.429C83.2758 132.881 81.2327 131.383 79.0551 129.575C78.8983 127.776 78.894 126.264 79.025 124.655C81.083 122.415 83.0057 120.271 84.9284 118.126C89.1765 118.147 93.4247 118.157 97.6727 118.194C100.516 118.219 100.984 118.692 100.992 121.586C101.007 127.665 101.004 133.743 100.994 139.821C100.988 143.008 100.709 143.273 97.1601 143.487Z" fill="#5E5F70"/>
<path d="M242.445 118.536C244.758 116.463 247.071 114.39 249.535 112.241C250.618 112.356 251.547 112.693 252.483 112.714C255.637 112.784 258.793 112.748 261.948 112.739C264.216 112.732 265.27 113.868 265.264 116.111C265.249 121.754 265.26 127.398 265.26 133.041C265.26 137.618 265.26 137.618 260.761 138.747C260.227 138.391 259.687 137.934 259.435 137.353C256.399 130.369 251.266 126.163 243.4 124.986C242.953 122.648 242.699 120.592 242.445 118.536Z" fill="#E6E6E6"/>
<path d="M161.533 55.8895C161.782 55.6547 162.005 55.6535 162.395 55.6543C162.582 57.1553 162.62 58.6541 162.62 60.153C162.617 105.897 162.61 151.64 162.408 197.615C162.011 197.845 161.808 197.845 161.606 197.845C161.569 197.265 161.501 196.684 161.501 196.104C161.5 149.444 161.504 102.783 161.533 55.8895Z" fill="#626075"/>
<path d="M225.342 106.848C228.775 107.669 232.092 108.971 235.532 109.676C239.098 110.407 240.435 112.3 239.256 116.224C238.843 117.602 238.539 118.698 240.555 119.005C239.161 119.476 237.73 119.741 236.103 120.043C236.103 121.64 236.103 123.187 236.103 124.734C235.733 124.701 235.363 124.668 234.875 124.563C234.771 124.079 234.748 123.661 234.806 123.254C235.14 120.905 234.505 119.534 232.008 118.441C227.258 116.364 225.044 112.326 225.342 106.848Z" fill="#A06770"/>
<path d="M224.518 215.044C224.52 216.256 224.437 217.651 224.036 219.251C205.382 219.46 187.046 219.472 168.71 219.467C146.291 219.459 123.873 219.437 101.454 219.42C101.439 219.205 101.425 218.989 101.412 218.611C141.376 218.439 181.339 218.429 221.302 218.42C222.286 218.42 223.27 218.42 224.434 218.42C224.434 217.201 224.434 216.214 224.518 215.044Z" fill="#56546A"/>
<path d="M332.399 47.1186C330.484 47.1166 328.782 47.3182 327.168 47.0288C326.333 46.8792 325.656 45.858 324.907 45.2306C325.669 44.5352 326.422 43.247 327.194 43.2348C336.188 43.0938 345.185 43.1065 354.18 43.2176C354.911 43.2266 355.629 44.2574 356.353 44.8134C355.697 45.5613 355.139 46.45 354.347 47.0031C353.89 47.3218 353.054 47.1154 352.389 47.1159C345.809 47.1203 339.228 47.1186 332.399 47.1186Z" fill="#CCCCCC"/>
<path d="M257.312 43.4447C266.818 43.2677 276.15 43.1566 285.48 43.2346C286.253 43.2411 287.014 44.5277 287.781 45.2195C286.951 45.8519 286.148 46.9819 285.285 47.0301C281.628 47.2347 277.952 47.1185 274.282 47.1185C269.279 47.1185 264.275 47.1634 259.272 47.0988C256.591 47.0641 255.817 45.6873 257.312 43.4447Z" fill="#CCCCCC"/>
<path d="M183.154 45.539C183.145 43.7505 184.072 43.1432 185.536 43.1428C194.365 43.1402 203.196 43.0903 212.023 43.2234C212.858 43.236 213.675 44.4053 214.5 45.0376C213.704 45.7284 212.951 46.9445 212.103 47.015C209.125 47.2624 206.113 47.1175 203.115 47.1182C197.534 47.1196 191.951 47.1898 186.374 47.0563C185.304 47.0306 184.254 46.1995 183.154 45.539Z" fill="#CCCCCC"/>
<path d="M121.481 43.1394C125.651 43.1395 129.572 43.1817 133.491 43.1175C134.916 43.0942 136.355 43.4844 136.178 44.9054C136.074 45.7415 134.446 47.0029 133.483 47.0211C124.813 47.1858 116.137 47.1164 107.463 47.1181C106.023 47.1184 104.752 46.5382 105.069 45.0224C105.228 44.2612 106.61 43.2581 107.472 43.2245C112.052 43.0458 116.643 43.1398 121.481 43.1394Z" fill="#CCCCCC"/>
<path d="M125.336 139.399C125.479 144.01 124.318 145.667 120.488 146.28C118.768 146.392 117.256 146.497 115.573 146.678C114.417 144.923 113.432 143.092 112.445 141.08C113.716 140.134 115.04 139.44 116.254 138.59C120.76 135.44 121.506 135.478 125.336 139.399Z" fill="#FAB5B7"/>
<path d="M84.937 117.925C83.0057 120.271 81.0829 122.415 78.8111 124.652C75.7166 124.862 72.9713 124.979 70.226 125.095C70.9853 124.81 71.7332 124.488 72.5064 124.247C74.4125 123.653 75.5484 122.36 75.2741 120.395C74.8567 117.405 76.4848 116.173 78.95 115.446C81.6139 114.661 83.7876 113.312 84.7859 110.353C84.9191 112.728 84.9324 115.226 84.937 117.925Z" fill="#FAB5B7"/>
<path d="M184.678 148.413C183.328 149.337 182.071 150.484 180.645 150.761C177.732 151.326 175.755 149.491 175.06 145.955C176.175 141.876 177.743 140.877 181.75 141.333C183.718 141.557 185.703 141.637 187.906 141.82C186.986 143.987 185.841 146.115 184.678 148.413Z" fill="#A06770"/>
<path d="M260.694 189.248C260.908 188.946 261.122 188.866 261.502 188.734C261.71 189.676 261.479 190.788 261.849 191.639C262.763 193.748 262.697 195.607 261.049 197.46C260.83 194.853 260.763 192.161 260.694 189.248Z" fill="#626075"/>
<path d="M224.036 202.025C224.269 203.573 224.422 205.299 224.445 207.179C224.196 205.622 224.075 203.913 224.036 202.025Z" fill="#56546A"/>
<path d="M223.55 189.01C223.781 190.554 223.932 192.278 223.957 194.155C223.711 192.602 223.59 190.895 223.55 189.01Z" fill="#56546A"/>
<path d="M58.4848 28.8161C59.6511 28.1217 60.9321 27.6007 62.4256 27.0907C62.526 27.4401 62.4869 28.0177 62.2899 28.0778C61.0796 28.4467 59.8337 28.6987 58.4848 28.8161Z" fill="#626075"/>
<path d="M161.588 197.982C161.808 197.845 162.011 197.845 162.365 197.845C162.445 198.045 162.373 198.245 162.3 198.445C162.057 198.336 161.813 198.227 161.588 197.982Z" fill="#777688"/>
<path d="M101.344 219.592C123.873 219.437 146.291 219.459 168.71 219.467C187.046 219.472 205.382 219.46 223.95 219.417C224.371 220.145 224.699 220.907 224.729 221.68C225.288 236.226 225.777 250.775 226.401 265.319C226.459 266.665 227.325 267.977 227.958 269.622C228.11 271.234 228.119 272.529 227.9 273.826C226.604 273.829 225.535 273.801 224.469 273.839C220.916 273.968 218.6 275.847 217.598 279.38C216.729 279.567 215.86 279.916 214.991 279.917C179.721 279.945 144.45 279.942 109.18 279.933C108.52 279.933 107.859 279.823 107.027 279.447C105.449 274.905 103.327 273.361 98.8738 273.305C97.8917 273.292 96.9101 273.242 95.9372 273.032C95.9671 272.152 95.988 271.449 96.009 270.745C98.7277 270.753 99.4423 269.236 99.523 266.727C100.027 251.07 100.651 235.417 101.344 219.592Z" fill="#FEFEFE"/>
<path d="M55.4475 270.624C55.8088 269.111 56.3218 267.712 56.8537 266.127C59.3525 266.432 60.4389 265.238 61.116 262.93C65.1232 249.27 69.2452 235.644 73.331 222.007C73.5685 221.215 73.8265 220.428 74.1081 219.534C76.3613 219.534 78.5796 219.534 80.9606 219.534C81.7954 228.159 82.6256 236.69 83.4452 245.222C84.154 252.602 84.875 259.98 85.5377 267.364C85.7331 269.54 86.6096 270.825 89.188 270.837C89.4001 271.775 89.4062 272.489 89.1883 273.26C88.7448 273.867 88.3733 274.406 88.3346 274.969C88.2213 276.616 88.2404 278.273 88.2077 279.927C80.3408 279.864 72.4738 279.8 64.4298 279.607C64.3735 275.202 62.5167 272.639 58.4557 271.493C57.5079 271.226 56.5516 270.989 55.4475 270.624Z" fill="#FCFCFC"/>
<path d="M58.9631 216.961C55.0733 215.655 53.8399 212.557 53.8317 208.803C53.8051 196.639 53.8311 184.476 53.8676 172.082C56.7307 174.599 59.514 177.4 62.4342 180.051C63.0617 180.62 64.1836 180.646 65.3934 180.943C66.0555 181.337 66.4021 181.71 66.7487 182.083C65.2322 189.044 63.7332 196.008 62.1932 202.963C61.1723 207.573 60.0927 212.17 58.9631 216.961Z" fill="#FCFCFC"/>
<path d="M70.4837 174.184C69.4103 173.582 68.3527 172.941 67.5044 172.09C65.984 170.566 64.6302 168.877 63.1333 167.328C60.3645 164.463 60.233 162.412 62.7836 158.834C65.8088 162.739 68.811 166.615 71.8527 170.66C71.4594 171.902 71.0267 172.976 70.4837 174.184Z" fill="#FCFCFC"/>
<path d="M76.3268 211.859C77.1737 211.028 77.973 210.381 78.7722 209.735C79.2877 210.578 80.0872 211.368 80.2598 212.277C80.6256 214.203 80.6644 216.19 80.8534 218.335C78.664 218.335 76.6447 218.335 74.4249 218.335C75.0688 216.15 75.674 214.097 76.3268 211.859Z" fill="#F1F1F1"/>
<path d="M89.4124 273.204C89.4062 272.489 89.4001 271.775 89.3905 270.882C91.441 270.674 93.495 270.644 95.779 270.68C95.988 271.449 95.967 272.152 95.7119 273.085C93.4559 273.278 91.4341 273.241 89.4124 273.204Z" fill="#FAB5B7"/>
<path d="M66.844 181.948C66.402 181.71 66.0555 181.337 65.5499 180.856C66.4454 179.442 67.5 178.136 68.7303 176.794C68.2506 178.444 67.595 180.128 66.844 181.948Z" fill="#FAB5B7"/>
<path d="M69.0439 176.535C68.9847 176.415 69.0704 176.213 69.3014 175.929C69.3607 176.049 69.2747 176.251 69.0439 176.535Z" fill="#FAB5B7"/>
<path d="M268.548 264.857C269.596 266.425 270.441 267.992 271.291 269.737C269.874 270.59 268.36 271.123 267.049 271.969C264.324 273.729 263.478 276.408 263.78 279.751C254.73 279.962 245.699 279.956 236.39 279.733C236.093 278.135 236.192 276.737 236.002 275.38C235.92 274.798 235.238 274.3 234.81 273.553C234.773 272.056 234.755 270.769 234.737 269.483C235.387 268.335 236.474 267.239 236.62 266.029C238.431 251.063 240.105 236.08 241.819 221.101C241.874 220.617 241.988 220.14 242.096 219.543C243.392 219.543 244.601 219.543 245.948 219.543C246.101 220.212 246.3 220.837 246.381 221.476C247.286 228.611 250.123 235.01 253.543 241.265C257.418 248.349 260.996 255.597 264.632 262.809C265.451 264.432 266.446 265.368 268.548 264.857Z" fill="#FCFCFC"/>
<path d="M234.502 269.464C234.755 270.769 234.773 272.056 234.574 273.6C232.28 273.847 230.204 273.836 228.128 273.824C228.119 272.529 228.11 271.234 228.104 269.721C230.16 269.483 232.214 269.464 234.502 269.464Z" fill="#A06770"/>
<path d="M242.211 217.892C242.826 217.155 243.519 216.112 244.044 216.191C244.764 216.299 245.356 217.258 246.002 217.852C245.87 218.106 245.737 218.361 245.605 218.615C244.474 218.439 243.344 218.262 242.211 217.892Z" fill="#E6E6E6"/>
<path d="M70.0558 125.14C72.9713 124.979 75.7167 124.862 78.6759 124.748C78.894 126.264 78.8983 127.776 78.8911 129.513C75.181 129.907 71.4824 130.077 67.5743 130.256C66.9283 127.939 67.8236 126.272 70.0558 125.14Z" fill="#FCFCFC"/>
<path d="M89.1883 273.26C91.4341 273.241 93.4559 273.278 95.703 273.262C96.9101 273.242 97.8917 273.292 98.8738 273.305C103.327 273.361 105.449 274.905 106.857 279.311C106.06 279.663 105.264 279.975 104.465 279.981C99.2112 280.016 93.9573 279.985 88.4557 279.951C88.2404 278.273 88.2213 276.616 88.3346 274.969C88.3733 274.406 88.7448 273.867 89.1883 273.26Z" fill="#313043"/>
<path d="M227.9 273.826C230.204 273.836 232.28 273.847 234.592 273.811C235.238 274.3 235.92 274.798 236.002 275.38C236.192 276.737 236.093 278.135 236.155 279.743C230.092 279.884 223.986 279.799 217.74 279.546C218.6 275.847 220.916 273.968 224.469 273.839C225.535 273.801 226.604 273.829 227.9 273.826Z" fill="#313043"/>
<path d="M236.33 124.783C236.103 123.187 236.103 121.64 236.103 120.043C237.73 119.741 239.161 119.476 240.74 119.084C241.302 118.834 241.714 118.712 242.286 118.563C242.699 120.592 242.953 122.648 243.205 124.929C240.987 125.047 238.772 124.939 236.33 124.783Z" fill="#FCFCFC"/>
<path d="M259.854 168.177C259.847 164.805 259.847 161.611 259.847 158.253C262.433 161.133 262.525 165.775 260.201 168.919C260.167 168.965 260.071 168.965 260.003 168.986C259.956 168.776 259.909 168.565 259.854 168.177Z" fill="#E6E6E6"/>
</svg>
