<svg width="99" height="99" viewBox="0 0 99 99" fill="none" xmlns="http://www.w3.org/2000/svg">
<path d="M49.7859 25.0204C50.176 25.0235 50.176 25.0235 50.5741 25.0267C51.2064 25.032 51.8386 25.0395 52.4709 25.049C52.1775 25.9604 51.8412 26.8372 51.4712 27.7198C49.4448 33.0773 49.1929 39.2094 50.8713 44.7013C50.9191 44.8586 50.9668 45.0158 51.016 45.1778C52.0809 48.5486 53.7937 51.6432 56.1272 54.299C56.2786 54.4831 56.43 54.6672 56.586 54.8569C60.1156 59.0181 64.7916 61.1991 69.8381 62.9826C67.5458 67.6778 62.489 70.9896 57.692 72.7034C56.7981 73.0042 55.8973 73.2565 54.9846 73.4943C54.6647 73.5787 54.6647 73.5787 54.3383 73.6648C48.0522 74.9974 41.3407 73.4812 35.965 70.1042C34.9156 69.4134 33.9719 68.6293 33.0471 67.7814C32.8359 67.5888 32.6247 67.3961 32.4071 67.1976C28.8922 63.8431 26.7206 59.6458 25.5061 54.9845C25.4498 54.7713 25.3936 54.558 25.3356 54.3383C24.0334 48.1955 25.4698 41.5906 28.6848 36.2775C32.431 30.6546 38.0286 26.7772 44.6302 25.3756C46.36 25.0526 48.0298 24.9935 49.7859 25.0204Z" fill="#332948"/>
<path d="M78.293 15.2226C77.894 16.453 77.4266 17.6494 76.9496 18.8512C75.7748 22.1219 76.3285 26.0372 77.6726 29.1585C79.4632 32.6898 82.1766 35.0106 85.8233 36.4808C87.4595 37.0032 89.0014 37.2437 90.7185 37.2315C90.9085 37.2304 91.0985 37.2293 91.2943 37.2281C93.5792 37.1847 95.394 36.5526 97.4392 35.5578C97.9453 35.332 97.9453 35.332 98.4024 35.332C98.6294 42.0507 96.7242 47.7146 92.2217 52.767C89.3511 55.8053 85.5266 57.8618 81.4922 58.8691C81.2881 58.9207 81.0839 58.9722 80.8736 59.0253C74.975 60.2489 68.9029 58.9178 63.8965 55.6699C63.1077 55.0896 62.3567 54.4764 61.6114 53.8418C61.427 53.7033 61.2426 53.5649 61.0526 53.4222C57.2547 50.2051 54.7967 44.7571 54.2989 39.9023C53.8654 33.7577 55.2684 28.1185 59.1495 23.2707C64.2238 17.4611 70.7136 15.0592 78.293 15.2226Z" fill="#332948"/>
<path d="M73.5513 68.6095C73.9207 68.5998 73.9207 68.5998 74.2976 68.5898C76.136 68.833 77.3516 69.9045 78.6099 71.1919C78.7618 71.344 78.9138 71.4962 79.0703 71.6529C79.3892 71.9732 79.707 72.2945 80.0237 72.6169C80.5054 73.107 80.9906 73.5933 81.4766 74.0791C81.7876 74.3924 82.0984 74.7058 82.409 75.0195C82.6239 75.2353 82.6239 75.2353 82.8433 75.4554C84.4264 77.0725 85.4747 78.4789 85.6055 80.8065C85.4772 82.3299 84.7885 83.507 83.6631 84.5199C82.6023 85.2625 81.9224 85.444 80.6067 85.4482C80.334 85.4521 80.0612 85.4559 79.7801 85.4598C77.6666 85.2409 76.3129 83.5799 74.8653 82.1776C74.659 81.9788 74.4528 81.78 74.2403 81.5752C73.651 81.0059 73.0653 80.4332 72.4812 79.8585C72.2443 79.6259 72.0067 79.394 71.7683 79.1628C68.9151 76.3907 68.9151 76.3907 68.5659 74.3295C68.568 72.6814 68.7089 71.5388 69.8379 70.2948C70.9814 69.1542 71.9305 68.6287 73.5513 68.6095Z" fill="#332948"/>
<path d="M27.4341 68.9049C28.7036 69.6478 29.7502 70.7483 30.3048 72.1228C30.3816 72.7977 30.3816 72.7977 30.3905 73.5511C30.397 73.7973 30.4035 74.0436 30.4102 74.2973C30.167 76.1358 29.0955 77.3513 27.8081 78.6096C27.656 78.7616 27.5038 78.9135 27.3471 79.0701C27.0268 79.3889 26.7055 79.7067 26.3831 80.0234C25.893 80.5051 25.4067 80.9904 24.9209 81.4764C24.6076 81.7874 24.2942 82.0981 23.9805 82.4087C23.8367 82.552 23.6928 82.6954 23.5446 82.843C21.6781 84.6703 20.2999 85.4755 17.6285 85.4562C16.19 85.3144 15.4078 84.6803 14.4516 83.6486C13.5443 82.2877 13.2498 80.9775 13.4947 79.3496C14.1755 76.883 16.6867 74.9156 18.451 73.1517C18.8807 72.721 19.3066 72.2868 19.7324 71.8524C20.0095 71.5739 20.2868 71.2957 20.5644 71.0177C20.7515 70.8256 20.7515 70.8256 20.9425 70.6296C22.7107 68.8818 24.9769 67.9795 27.4341 68.9049Z" fill="#332948"/>
<path d="M5.85191 44.4323C6.07853 44.4293 6.30515 44.4264 6.53864 44.4234C6.78239 44.4217 7.02614 44.42 7.27729 44.4183C7.52979 44.4164 7.7823 44.4146 8.04246 44.4127C8.57703 44.4095 9.11161 44.4071 9.64618 44.4053C10.4597 44.4013 11.2729 44.3913 12.0864 44.3812C12.6066 44.3789 13.1269 44.3769 13.6472 44.3754C13.8886 44.3714 14.13 44.3674 14.3788 44.3633C16.0652 44.3682 17.5845 44.5947 18.8518 45.7934C20.1569 47.2362 20.3669 48.3589 20.3366 50.3025C20.1789 51.7544 19.4869 52.6228 18.4362 53.5848C16.9366 54.6253 15.5108 54.5976 13.7462 54.5961C13.3676 54.5976 13.3676 54.5976 12.9814 54.5991C12.4486 54.6004 11.9158 54.6005 11.383 54.5995C10.5711 54.5988 9.75932 54.6042 8.94741 54.61C8.42849 54.6105 7.90957 54.6106 7.39065 54.6104C7.14946 54.6125 6.90828 54.6146 6.65978 54.6168C4.7634 54.605 3.13904 54.3266 1.74024 52.9278C0.772409 51.5283 0.425162 50.2833 0.597666 48.586C0.921171 47.2943 1.45414 46.1292 2.57932 45.3511C3.69701 44.6824 4.56827 44.4468 5.85191 44.4323Z" fill="#332948"/>
<path d="M52.8706 1.68322C54.0625 2.87504 54.549 4.18703 54.5678 5.85201C54.5722 6.19194 54.5722 6.19194 54.5767 6.53874C54.5784 6.78249 54.5801 7.02625 54.5818 7.27739C54.5837 7.5299 54.5855 7.7824 54.5874 8.04256C54.5906 8.57713 54.593 9.11171 54.5948 9.64628C54.5988 10.4598 54.6088 11.273 54.6189 12.0865C54.6212 12.6067 54.6231 13.127 54.6247 13.6473C54.6287 13.8887 54.6327 14.1301 54.6368 14.3789C54.6319 16.0653 54.4054 17.5846 53.2067 18.8519C51.7639 20.157 50.6412 20.367 48.6976 20.3367C47.2457 20.179 46.3773 19.487 45.4153 18.4363C44.3748 16.9367 44.4024 15.5109 44.404 13.7463C44.403 13.4939 44.402 13.2415 44.401 12.9815C44.3997 12.4487 44.3996 11.9159 44.4006 11.3831C44.4013 10.5712 44.3959 9.75942 44.3901 8.94752C44.3896 8.42859 44.3894 7.90967 44.3897 7.39075C44.3865 7.02897 44.3865 7.02897 44.3833 6.65988C44.3951 4.76351 44.6735 3.13914 46.0723 1.74035C48.3196 0.186143 50.5992 0.237775 52.8706 1.68322Z" fill="#332948"/>
<path d="M51.6754 78.958C52.8417 79.6516 53.7642 80.5835 54.3249 81.8293C54.6126 82.9738 54.5971 84.0779 54.5961 85.2538C54.5971 85.5062 54.5981 85.7586 54.5991 86.0187C54.6004 86.5515 54.6005 87.0843 54.5995 87.6171C54.5988 88.429 54.6042 89.2407 54.61 90.0526C54.6105 90.5716 54.6106 91.0905 54.6104 91.6094C54.6125 91.8506 54.6146 92.0918 54.6168 92.3403C54.6062 94.0391 54.4444 95.4007 53.3134 96.7456C51.8962 97.9321 50.9329 98.48 49.0778 98.4524C47.7402 98.3164 46.5638 97.7513 45.6153 96.8028C44.7916 95.6118 44.4485 94.5817 44.4323 93.1481C44.4293 92.9215 44.4264 92.6949 44.4234 92.4614C44.4217 92.2177 44.42 91.9739 44.4183 91.7228C44.4164 91.4703 44.4146 91.2178 44.4127 90.9576C44.4095 90.423 44.4071 89.8884 44.4053 89.3539C44.4013 88.5404 44.3913 87.7271 44.3812 86.9137C44.3789 86.3934 44.3769 85.8732 44.3754 85.3529C44.3714 85.1115 44.3674 84.87 44.3633 84.6213C44.3682 82.9349 44.5947 81.4155 45.7934 80.1483C47.4527 78.6473 49.4983 78.1716 51.6754 78.958Z" fill="#332948"/>
<path d="M18.7219 13.7942C18.9755 13.7883 19.2292 13.7824 19.4905 13.7764C20.8079 13.9064 21.7197 14.5532 22.6727 15.4358C22.8693 15.6178 23.0658 15.7998 23.2684 15.9873C24.3124 16.9793 25.3495 17.977 26.3717 18.9914C26.6149 19.2319 26.859 19.4714 27.1041 19.7098C30.0853 22.6101 30.0853 22.6101 30.4342 24.6701C30.4319 26.5632 30.1507 27.6957 28.8212 29.053C27.5538 30.1891 26.4021 30.3995 24.7535 30.3598C22.0433 30.1173 19.9992 27.3539 18.1786 25.5331C17.7924 25.1474 17.4043 24.7635 17.0161 24.3796C16.7669 24.1311 16.5179 23.8825 16.269 23.6338C16.0972 23.4645 16.0972 23.4645 15.922 23.2918C14.5586 21.9196 13.8235 20.7775 13.7803 18.8358C13.7965 17.5046 13.9069 16.4978 14.7657 15.451C16.0223 14.2981 17.0011 13.818 18.7219 13.7942Z" fill="#332948"/>
</svg>
