<svg width="260" height="108" viewBox="0 0 260 108" fill="none" xmlns="http://www.w3.org/2000/svg">
<path d="M130.706 0.00190637C131.001 0.00350937 131.296 0.0019079 131.592 1.15993e-05C132.925 -0.00139737 134.212 0.125631 135.528 0.339322C135.613 0.352814 135.699 0.366305 135.787 0.380206C138.366 0.788123 141.036 1.83357 143.187 3.32432C143.289 3.39153 143.39 3.45874 143.495 3.52799C145.589 4.93456 147.415 6.7277 148.857 8.79682C148.904 8.86434 148.952 8.93185 149 9.00141C149.571 9.82696 150.072 10.6838 150.542 11.5704C150.587 11.6543 150.631 11.7382 150.677 11.8247C150.948 12.3473 151.163 12.8741 151.358 13.4294C151.454 13.7031 151.567 13.967 151.686 14.232C151.974 14.9176 152.179 15.6195 152.376 16.3355C152.436 16.5493 152.499 16.7618 152.563 16.9745C152.86 17.9995 153.046 19.0367 153.209 20.0901C153.22 20.1584 153.23 20.2266 153.241 20.297C153.447 21.6287 153.548 22.9273 153.546 24.2745C153.546 24.4212 153.546 24.5679 153.546 24.7146C153.546 25.0199 153.546 25.3251 153.545 25.6303C153.545 26.0207 153.545 26.4111 153.546 26.8016C153.546 27.1036 153.546 27.4056 153.546 27.7076C153.546 27.8516 153.546 27.9956 153.546 28.1396C153.546 28.3405 153.546 28.5414 153.545 28.7422C153.545 28.9133 153.545 28.9133 153.545 29.0878C153.534 29.3679 153.495 29.6181 153.433 29.8908C153.416 30.0405 153.402 30.1904 153.39 30.3405C153.158 33.1111 152.552 35.8911 151.444 38.4478C151.401 38.5527 151.358 38.6577 151.314 38.7658C150.711 40.2315 149.975 41.6324 149.056 42.9253C148.978 43.0398 148.899 43.1543 148.821 43.2689C148.352 43.947 147.86 44.5683 147.295 45.1695C147.099 45.3782 146.914 45.5914 146.731 45.8108C145.081 47.6943 142.921 49.0198 140.689 50.0969C140.56 50.1599 140.432 50.2244 140.305 50.2901C135.531 52.7509 128.919 52.6659 123.895 51.103C120.728 50.0631 118.052 48.391 115.632 46.1093C115.555 46.0367 115.477 45.9641 115.396 45.8893C114.738 45.257 114.19 44.5483 113.643 43.8208C113.579 43.7367 113.579 43.7367 113.513 43.6509C112.84 42.763 112.284 41.8286 111.763 40.8439C111.669 40.6655 111.572 40.4882 111.475 40.3111C110.026 37.5722 109.188 34.5416 108.769 31.4828C108.754 31.3764 108.739 31.2701 108.724 31.1605C107.677 23.309 108.849 14.6918 113.654 8.21498C113.844 7.97292 114.041 7.73784 114.24 7.50332C114.328 7.39546 114.417 7.28754 114.505 7.17956C117.242 3.86679 121.088 1.62217 125.244 0.60051C125.335 0.577968 125.426 0.555426 125.52 0.532201C127.233 0.138875 128.952 -0.00936316 130.706 0.00190637Z" fill="#3E3F4E"/>
<path d="M74.0519 30.3885C74.117 30.4136 74.1822 30.4387 74.2494 30.4646C79.231 32.428 82.4904 37.0119 84.9941 41.5325C85.0408 41.6159 85.0874 41.6993 85.1355 41.7853C86.9055 44.9671 88.2309 48.4324 89.371 51.8805C89.4103 51.9987 89.4495 52.1169 89.49 52.2387C90.0279 53.8647 90.5223 55.4989 90.9626 57.154C90.9879 57.2487 90.9879 57.2487 91.0136 57.3454C91.6532 59.7515 92.2754 62.1722 92.7532 64.6165C92.8142 64.6184 92.8751 64.6204 92.938 64.6224C93.6395 64.6462 94.3402 64.6788 95.0411 64.716C95.1141 64.7192 95.1872 64.7224 95.2624 64.7258C98.4628 64.8873 101.623 66.7069 103.795 68.9945C105.324 70.7048 106.298 72.6635 106.879 74.865C106.91 74.9821 106.91 74.9821 106.942 75.1016C107.027 75.4245 107.112 75.7475 107.196 76.0709C107.317 76.5377 107.446 77.0015 107.581 77.4644C107.726 77.9632 107.851 78.4634 107.967 78.9693C108.097 79.5399 108.242 80.1041 108.402 80.6671C108.626 81.4549 108.826 82.2477 109.024 83.0426C109.319 84.2318 109.619 85.4171 109.962 86.5935C110.131 87.1785 110.274 87.7667 110.41 88.3597C110.543 88.9316 110.69 89.4983 110.844 90.0648C110.934 90.396 111.019 90.7281 111.104 91.0605C111.13 91.1618 111.156 91.263 111.183 91.3673C111.234 91.5672 111.285 91.7671 111.336 91.9672C111.547 92.9443 111.547 92.9443 112.051 93.77C112.121 94.2033 112.025 94.5558 111.784 94.9177C110.927 95.9092 109.839 96.5612 108.682 97.153C108.565 97.213 108.449 97.273 108.329 97.3348C107.379 97.8186 106.409 98.2184 105.403 98.5697C105.064 98.689 104.728 98.8168 104.392 98.944C103.273 99.3665 102.149 99.6988 100.99 99.9895C100.566 100.096 100.148 100.214 99.7285 100.337C99.0581 100.53 98.3852 100.688 97.7021 100.828C97.5809 100.853 97.4596 100.878 97.3348 100.904C96.3363 101.104 95.3337 101.266 94.3261 101.413C94.2545 101.423 94.1828 101.434 94.109 101.444C93.6575 101.51 93.2056 101.571 92.7532 101.63C92.6711 101.642 92.589 101.653 92.5045 101.665C91.6858 101.765 90.8573 101.752 90.0338 101.754C89.7657 101.755 89.4978 101.758 89.2298 101.761C88.388 101.766 87.5691 101.741 86.7381 101.598C86.67 101.586 86.6019 101.575 86.5317 101.563C85.9669 101.453 85.5095 101.233 85.0936 100.834C84.8824 100.518 84.8679 100.412 84.8484 100.046C84.8013 99.4246 84.6778 98.8356 84.5403 98.2288C84.4859 97.9823 84.4317 97.7358 84.3779 97.4892C84.3635 97.4236 84.3492 97.358 84.3344 97.2905C84.1651 96.511 84.0116 95.7285 83.8571 94.946C83.5857 93.5713 83.3031 92.2002 82.9985 90.8324C82.7572 89.7469 82.542 88.6579 82.3351 87.5654C82.1592 86.6448 81.9648 85.7297 81.7612 84.815C81.5184 83.7232 81.2899 82.6295 81.0773 81.5315C81.0524 81.4033 81.0274 81.2752 81.0017 81.1432C80.8004 80.0921 80.6986 79.102 80.6981 78.0303C80.6968 77.9166 80.6956 77.8029 80.6944 77.6857C80.693 76.8935 80.7713 76.141 80.9157 75.3625C80.9286 75.2909 80.9415 75.2193 80.9549 75.1455C81.3819 72.947 82.4605 70.9861 83.8999 69.293C83.962 69.2175 84.024 69.1421 84.088 69.0644C84.5964 68.4649 85.1689 67.9814 85.7899 67.502C85.8714 67.4365 85.9528 67.3711 86.0367 67.3037C88.0991 65.711 88.0991 65.711 88.9731 65.711C88.2616 62.0394 87.3621 58.4367 86.2721 54.8606C86.2211 54.6931 86.1703 54.5256 86.1196 54.358C85.7763 53.2249 85.3941 52.1125 84.9762 51.0047C84.8621 50.6986 84.7523 50.391 84.6425 50.0833C83.212 46.0803 81.3005 42.2367 78.7272 38.846C78.6594 38.7554 78.5915 38.6648 78.5216 38.5716C76.7511 36.305 74.473 34.4422 71.6645 33.672C71.5481 33.6385 71.5481 33.6385 71.4294 33.6043C69.2043 33.0582 66.5475 33.7124 64.6133 34.8439C63.6293 35.442 62.7518 36.1663 61.9159 36.9555C61.8499 37.0163 61.7838 37.077 61.7158 37.1397C60.264 38.5241 59.1416 40.3198 58.142 42.0467C58.0416 42.2199 57.9398 42.3922 57.8378 42.5644C56.6232 44.6445 55.5917 46.8442 54.6549 49.0608C54.5154 49.3849 54.3648 49.7026 54.2128 50.021C53.5505 51.4228 52.9703 52.8643 52.3849 54.2995C52.151 54.873 51.8995 55.4359 51.6362 55.9965C51.4255 56.4576 51.2277 56.9237 51.0296 57.3903C50.697 58.1707 50.3555 58.9441 49.9893 59.7095C49.8556 59.99 49.7232 60.2711 49.5907 60.5521C48.9041 62.0008 48.1789 63.4186 47.3925 64.8155C47.3434 64.9034 47.2943 64.9913 47.2438 65.0819C46.2478 66.8647 45.2034 68.5918 43.9508 70.207C43.8192 70.3773 43.6897 70.549 43.5608 70.7213C42.1154 72.6467 40.4608 74.5004 38.5392 75.9595C38.4423 76.0371 38.3454 76.1147 38.2455 76.1946C36.6459 77.47 34.899 78.4379 33.0681 79.3425C33.0003 79.3762 32.9326 79.4099 32.8628 79.4447C30.9204 80.3953 28.7221 80.8793 26.6022 81.233C26.5104 81.2492 26.4185 81.2655 26.3239 81.2823C21.5422 82.106 15.6511 81.7176 11.1117 79.9608C10.7259 79.8178 10.3357 79.7038 9.94015 79.5912C9.30274 79.4088 8.68207 79.1979 8.05944 78.9693C7.66178 78.831 7.26107 78.7121 6.85642 78.5962C6.33518 78.447 5.82392 78.2857 5.31455 78.0987C4.81728 77.9163 4.31893 77.7587 3.80999 77.6136C3.15355 77.4247 2.50426 77.2187 1.85779 76.998C1.77366 76.97 1.68952 76.9421 1.60284 76.9133C1.06907 76.728 0.62994 76.5423 0.304658 76.0547C0.0698811 75.5241 -0.0768925 75.047 0.0423705 74.467C0.30275 73.8649 0.690521 73.4604 1.26716 73.1486C1.9697 72.9525 2.47271 73.1018 3.13115 73.3596C3.42119 73.4707 3.71144 73.5634 4.00894 73.6523C4.59721 73.8299 5.1797 74.0225 5.76219 74.2182C6.32413 74.4069 6.88578 74.594 7.45327 74.7655C8.11362 74.965 8.76646 75.1858 9.42035 75.4054C9.99688 75.5984 10.5751 75.7826 11.1576 75.9571C11.4 76.0332 11.6386 76.1131 11.878 76.1981C14.0341 76.9591 16.2341 77.27 18.4967 77.514C18.6989 77.5359 18.901 77.5586 19.1028 77.5834C19.9026 77.6774 20.7061 77.6752 21.5103 77.6758C21.5888 77.6759 21.6672 77.676 21.748 77.676C27.525 77.6682 33.0397 75.9361 37.2911 71.9192C37.497 71.7256 37.7055 71.543 37.9237 71.3638C38.2323 71.1027 38.4911 70.8116 38.7522 70.5037C38.945 70.2788 39.1458 70.0633 39.3475 69.8464C40.9271 68.0873 42.2418 66.068 43.4135 64.0195C43.4703 63.9203 43.4703 63.9203 43.5282 63.819C43.828 63.2923 44.1198 62.7614 44.4083 62.2285C44.4527 62.1465 44.4972 62.0645 44.543 61.9801C45.9767 59.3213 47.2128 56.5642 48.3954 53.7863C48.713 53.0408 49.0321 52.2959 49.3509 51.5509C49.4071 51.4196 49.4071 51.4196 49.4645 51.2856C50.012 50.0068 50.5626 48.7294 51.1198 47.4548C51.195 47.2826 51.2701 47.1104 51.345 46.9381C51.8193 45.8481 52.3248 44.7808 52.8637 43.7215C52.9485 43.5492 53.033 43.3768 53.117 43.2041C55.0849 39.1814 57.564 35.1701 61.2196 32.478C61.3059 32.4141 61.3059 32.4141 61.394 32.3489C62.9333 31.2254 64.6463 30.4505 66.4918 29.9905C66.5543 29.9732 66.6169 29.9559 66.6814 29.938C67.2092 29.7954 67.7323 29.7301 68.2761 29.6795C68.3599 29.6709 68.4437 29.6623 68.53 29.6535C70.3914 29.4729 72.3062 29.7106 74.0519 30.3885Z" fill="#B0ADE7"/>
<path d="M179.532 1.10862C179.69 1.10734 179.69 1.10734 179.852 1.10605C179.967 1.10614 180.082 1.10623 180.2 1.10632C180.322 1.10565 180.444 1.10498 180.569 1.10429C180.903 1.10273 181.237 1.10207 181.57 1.10194C181.779 1.1018 181.988 1.10137 182.196 1.10085C182.926 1.09901 183.655 1.09819 184.384 1.09835C185.062 1.09847 185.74 1.09637 186.418 1.09323C187.002 1.09062 187.585 1.08956 188.169 1.08969C188.517 1.08974 188.865 1.08918 189.213 1.08706C189.601 1.08476 189.99 1.08569 190.378 1.08688C190.492 1.08577 190.606 1.08465 190.724 1.0835C191.622 1.09051 192.365 1.29109 193.024 1.93123C193.387 2.42453 193.538 2.77716 193.553 3.38641C193.556 3.48415 193.56 3.58188 193.564 3.68258C193.464 4.48345 193.001 5.14173 192.552 5.79307C192.453 5.93881 192.354 6.08456 192.255 6.23033C192.203 6.30584 192.152 6.38135 192.099 6.45916C191.774 6.93748 191.454 7.41971 191.134 7.90123C191.025 8.06526 190.916 8.22928 190.806 8.39328C190.626 8.66371 190.446 8.93415 190.266 9.20461C189.86 9.81262 189.455 10.4204 189.049 11.0281C187.294 13.6567 187.294 13.6567 185.562 16.3008C185.175 16.896 184.782 17.4861 184.387 18.0755C184.229 18.3114 184.071 18.5476 183.914 18.7838C183.788 18.9729 183.662 19.1619 183.536 19.3509C183.377 19.5893 183.218 19.8278 183.06 20.0663C182.631 20.7096 182.202 21.3523 181.772 21.9943C181.529 22.3571 181.286 22.7201 181.043 23.0831C180.918 23.2695 180.794 23.4559 180.669 23.6422C180.485 23.9159 180.302 24.19 180.119 24.4641C180.036 24.5872 180.036 24.5872 179.951 24.7129C179.195 25.7793 179.195 25.7793 178.949 27.0239C178.95 27.1953 178.95 27.1953 178.952 27.3702C179.039 27.989 179.323 28.3982 179.794 28.7962C180.415 29.2394 181.038 29.2886 181.784 29.1942C182.431 29.036 182.792 28.7325 183.167 28.1895C183.418 27.7522 183.392 27.3188 183.396 26.8299C183.399 26.6532 183.402 26.4764 183.405 26.2996C183.409 26.0217 183.412 25.7438 183.415 25.4658C183.418 25.197 183.422 24.9283 183.427 24.6596C183.428 24.5366 183.428 24.5366 183.428 24.4111C183.443 23.6934 183.602 23.0551 184.09 22.5029C184.143 22.4408 184.196 22.3787 184.25 22.3147C184.947 21.727 185.574 21.6737 186.454 21.6802C186.571 21.6795 186.688 21.6788 186.808 21.6781C187.193 21.6764 187.578 21.6775 187.963 21.6789C188.231 21.6788 188.5 21.6782 188.768 21.6777C189.331 21.677 189.893 21.6779 190.456 21.6798C191.104 21.682 191.752 21.6813 192.4 21.6791C192.958 21.6773 193.517 21.6771 194.075 21.6781C194.408 21.6787 194.74 21.6786 195.073 21.6775C195.444 21.6765 195.815 21.678 196.187 21.6802C196.295 21.6794 196.404 21.6786 196.516 21.6778C197.302 21.6864 198.002 21.8246 198.635 22.3147C198.685 22.3768 198.736 22.4389 198.788 22.5029C198.866 22.5944 198.866 22.5944 198.946 22.6879C199.336 23.321 199.433 23.8867 199.424 24.6133C199.425 24.7831 199.427 24.9528 199.428 25.1225C199.428 25.386 199.428 25.6495 199.427 25.913C199.41 27.5094 199.41 27.5094 200.224 28.8398C201.043 29.3274 201.729 29.3383 202.673 29.3435C204.512 29.3536 204.512 29.3536 205.229 29.9591C205.282 30.0026 205.336 30.0461 205.391 30.0909C205.895 30.6891 206.015 31.2741 206.008 32.0393C206.009 32.1773 206.009 32.1773 206.01 32.3181C206.011 32.6201 206.01 32.922 206.009 33.224C206.009 33.4351 206.01 33.6462 206.01 33.8573C206.011 34.2989 206.01 34.7405 206.008 35.1821C206.006 35.7469 206.007 36.3116 206.009 36.8763C206.011 37.312 206.01 37.7477 206.009 38.1834C206.009 38.3915 206.009 38.5997 206.01 38.8079C206.011 39.0994 206.01 39.3907 206.008 39.6821C206.008 39.7674 206.009 39.8526 206.01 39.9403C206 40.6184 205.815 41.1387 205.366 41.6523C205.302 41.705 205.238 41.7578 205.173 41.8121C205.109 41.8661 205.046 41.9201 204.981 41.9757C204.467 42.3371 204.076 42.4637 203.446 42.4577C203.307 42.4584 203.169 42.4593 203.03 42.4602C202.815 42.46 202.6 42.4588 202.385 42.4561C201.579 42.4481 200.904 42.4725 200.197 42.9086C199.539 43.5858 199.418 44.2532 199.43 45.171C199.43 45.2785 199.429 45.386 199.428 45.4967C199.426 45.8378 199.427 46.1787 199.428 46.5197C199.428 46.8614 199.428 47.203 199.426 47.5447C199.425 47.7566 199.425 47.9684 199.427 48.1803C199.425 48.7659 199.366 49.1719 199.092 49.6912C199.041 49.7918 198.99 49.8923 198.937 49.9959C198.535 50.4809 198.033 50.823 197.406 50.94C197.076 50.9604 196.752 50.9625 196.421 50.9577C196.297 50.9583 196.173 50.9589 196.045 50.9595C195.708 50.9604 195.371 50.9586 195.034 50.9556C194.679 50.9529 194.325 50.9535 193.97 50.9536C193.375 50.9533 192.781 50.9507 192.186 50.9467C191.5 50.942 190.814 50.9404 190.127 50.9406C189.394 50.9408 188.661 50.9387 187.928 50.936C187.718 50.9354 187.508 50.9352 187.298 50.935C186.905 50.9347 186.512 50.9318 186.12 50.9286C186.004 50.9287 185.889 50.9289 185.77 50.929C185.048 50.9205 184.459 50.8578 183.852 50.4332C183.799 50.3792 183.747 50.3252 183.692 50.2696C183.638 50.2169 183.584 50.1641 183.529 50.1098C183.063 49.4443 183.034 48.7806 183.036 47.9962C183.035 47.893 183.034 47.7898 183.033 47.6834C183.029 47.2448 183.027 46.8062 183.026 46.3676C183.024 46.046 183.021 45.7245 183.018 45.403C183.018 45.3046 183.018 45.2063 183.019 45.1049C183.012 44.5306 182.946 44.132 182.679 43.6217C182.599 43.4678 182.599 43.4678 182.517 43.3108C182.164 42.8831 181.708 42.5916 181.158 42.4818C180.917 42.4649 180.68 42.4629 180.439 42.467C180.348 42.4665 180.257 42.466 180.163 42.4655C179.86 42.4645 179.557 42.467 179.254 42.4695C179.036 42.4695 178.818 42.4692 178.6 42.4688C178.132 42.4682 177.663 42.4692 177.195 42.4714C176.454 42.4748 175.712 42.4744 174.971 42.4734C173.932 42.4724 172.892 42.4727 171.853 42.4745C171.787 42.4746 171.721 42.4747 171.653 42.4749C171.119 42.4758 170.584 42.4768 170.05 42.4779C169.583 42.4788 169.116 42.4796 168.649 42.4804C168.583 42.4806 168.518 42.4807 168.45 42.4808C167.352 42.4826 166.253 42.4825 165.155 42.4811C164.419 42.4802 163.682 42.4818 162.946 42.4852C162.487 42.4869 162.029 42.4865 161.57 42.4855C161.358 42.4855 161.146 42.4863 160.934 42.488C158.724 42.5054 158.724 42.5054 157.922 41.7555C157.337 41.1478 157.168 40.4991 157.17 39.6809C157.169 39.5981 157.168 39.5153 157.167 39.4301C157.164 39.158 157.163 38.8861 157.163 38.6141C157.162 38.4236 157.161 38.2332 157.16 38.0427C157.158 37.6439 157.158 37.2451 157.158 36.8463C157.158 36.3377 157.154 35.8292 157.149 35.3205C157.145 34.9272 157.145 34.5338 157.145 34.1405C157.145 33.9531 157.143 33.7657 157.141 33.5783C157.129 32.5025 157.148 31.6864 157.81 30.7862C157.918 30.6242 158.026 30.4621 158.135 30.3C158.248 30.1404 158.361 29.9812 158.475 29.8223C158.599 29.6475 158.723 29.4726 158.847 29.2976C158.908 29.2124 158.968 29.1271 159.031 29.0392C159.27 28.7014 159.504 28.3605 159.737 28.0189C160.182 27.3699 160.631 26.724 161.08 26.0786C161.621 25.3024 162.158 24.5237 162.691 23.742C163.183 23.0205 163.683 22.3038 164.182 21.5871C164.598 20.9905 165.01 20.3921 165.42 19.7915C165.964 18.9935 166.515 18.2005 167.067 17.4081C167.483 16.8115 167.895 16.2131 168.305 15.6125C168.849 14.8145 169.4 14.0215 169.952 13.2291C170.367 12.6325 170.78 12.0341 171.189 11.4335C171.738 10.6286 172.294 9.82847 172.851 9.02915C173.227 8.48856 173.602 7.94715 173.975 7.40373C174.488 6.6555 175.006 5.91107 175.524 5.16687C175.878 4.65868 176.23 4.14938 176.579 3.63762C178.301 1.1131 178.301 1.1131 179.532 1.10862Z" fill="#3E3F4E"/>
<path d="M244.708 38.1061C245.907 39.0545 246.959 40.1821 247.835 41.4332C247.875 41.4906 247.916 41.548 247.957 41.6071C248.634 42.5789 249.231 43.5937 249.825 44.6172C251.627 47.7229 253.797 50.9601 256.589 53.2737C256.682 53.3562 256.776 53.4386 256.872 53.5236C257.805 54.3414 258.804 55.0305 259.872 55.6617C259.807 55.946 259.719 56.2052 259.606 56.4736C259.556 56.5914 259.556 56.5914 259.505 56.7116C259.47 56.794 259.435 56.8765 259.399 56.9614C259.346 57.0877 259.346 57.0877 259.291 57.2165C259.03 57.8304 258.761 58.4402 258.479 59.0447C257.265 58.6032 256.187 57.7648 255.196 56.9552C255.145 56.9139 255.093 56.8726 255.04 56.8301C254.204 56.1578 253.438 55.4162 252.678 54.6605C252.587 54.5699 252.495 54.4794 252.401 54.3862C251.873 53.8559 251.385 53.3088 250.917 52.7246C250.755 52.5217 250.59 52.3236 250.419 52.1275C248.836 50.276 247.56 48.1556 246.353 46.0467C245.061 43.7946 243.437 41.1215 240.853 40.2454C239.779 39.9737 239.014 40.2387 238.052 40.7647C231.48 44.8615 228.914 56.4502 226.958 63.4413C226.7 64.3579 226.419 65.267 226.135 66.1755C226.083 66.3392 226.032 66.503 225.982 66.6669C225.621 67.8284 225.21 68.9608 224.757 70.0892C224.703 70.2235 224.65 70.3579 224.597 70.4923C223.463 73.3419 222.223 76.1478 220.707 78.8168C220.586 79.0316 220.467 79.2476 220.348 79.4643C217.752 84.1975 214.338 88.4676 210.538 92.2839C210.46 92.362 210.383 92.4402 210.303 92.5207C209.886 92.9364 209.461 93.3356 209.015 93.7196C208.799 93.9058 208.59 94.0991 208.381 94.2926C207.879 94.7451 207.354 95.1599 206.82 95.5732C206.577 95.7619 206.337 95.9538 206.099 96.1492C205.199 96.887 204.262 97.5514 203.295 98.1976C203.092 98.3333 202.89 98.4703 202.689 98.608C197.759 101.968 192.171 104.431 186.459 106.108C186.39 106.128 186.322 106.149 186.251 106.169C182.585 107.218 178.564 107.116 174.82 106.606C174.662 106.586 174.504 106.567 174.346 106.547C169.587 105.918 164.972 104.233 160.595 102.327C160.332 102.589 160.071 102.852 159.815 103.121C157.387 105.654 154.066 107.167 150.548 107.256C149.248 107.264 148.021 107.153 146.768 106.805C146.702 106.787 146.635 106.768 146.566 106.75C144.362 106.135 142.44 104.794 140.564 103.531C140.086 103.21 139.604 102.895 139.121 102.582C139.039 102.529 138.956 102.475 138.871 102.42C138.703 102.311 138.535 102.202 138.367 102.093C138.029 101.874 137.691 101.654 137.352 101.434C136.668 100.989 135.983 100.544 135.298 100.101C134.528 99.6032 133.76 99.1022 132.992 98.6011C132.355 98.1853 131.717 97.7709 131.079 97.358C130.294 96.8506 129.51 96.3409 128.727 95.8313C128.267 95.5318 127.806 95.2324 127.346 94.9331C127.177 94.8236 127.009 94.7141 126.841 94.6047C126.77 94.5587 126.699 94.5127 126.626 94.4654C126.577 94.433 126.527 94.4006 126.475 94.3672C126.955 93.5846 127.475 92.8429 128.023 92.1069C128.289 91.7449 128.528 91.4186 128.664 90.9842C127.504 90.1441 127.504 90.1441 126.34 89.3095C126.231 89.2316 126.122 89.1536 126.013 89.0755C125.682 88.8388 125.35 88.6043 125.017 88.3711C124.857 88.2575 124.696 88.1439 124.536 88.0303C124.423 87.9523 124.423 87.9523 124.308 87.8727C123.761 87.4832 123.212 87.0627 122.994 86.4072C122.923 85.8029 122.891 85.2707 123.255 84.7592C123.595 84.3786 123.901 84.1569 124.418 84.088C125.389 84.039 126.051 84.5423 126.805 85.1012C126.92 85.1853 126.92 85.1853 127.037 85.271C127.281 85.45 127.525 85.63 127.769 85.8102C128.094 86.0507 128.419 86.2911 128.745 86.5316C128.823 86.5896 128.901 86.6476 128.982 86.7074C129.63 87.1851 130.286 87.6469 130.952 88.0987C130.986 88.0221 130.986 88.0221 131.021 87.944C131.199 87.6095 131.414 87.3026 131.629 86.9917C131.677 86.9222 131.725 86.8527 131.775 86.7811C132.194 86.1766 132.624 85.581 133.057 84.986C133.454 84.4372 133.842 83.882 134.223 83.322C134.619 82.7424 135.023 82.1695 135.431 81.5983C135.677 81.2519 135.912 80.9056 136.124 80.5367C135.437 79.9958 134.74 79.4714 134.023 78.9696C133.388 78.5246 132.758 78.073 132.133 77.6139C132.055 77.5571 131.978 77.5003 131.897 77.4418C130.559 76.4555 130.559 76.4555 130.355 75.9597C130.29 75.3786 130.27 74.845 130.523 74.3117C130.993 73.8164 131.318 73.5571 132.002 73.5344C133.109 73.5527 133.849 74.2887 134.693 74.9324C136.479 76.3573 136.479 76.3573 138.412 77.5517C138.435 77.4834 138.458 77.4152 138.482 77.3449C138.641 76.9871 138.861 76.6927 139.096 76.3826C139.196 76.2492 139.295 76.1158 139.394 75.9822C139.446 75.9131 139.497 75.844 139.55 75.7728C139.804 75.4282 140.05 75.0785 140.296 74.7284C140.369 74.6242 140.369 74.6242 140.444 74.518C140.544 74.3756 140.644 74.2333 140.744 74.0909C140.907 73.8596 141.07 73.6285 141.233 73.3976C141.287 73.3205 141.342 73.2435 141.398 73.1641C141.503 73.0162 141.607 72.8683 141.712 72.7203C141.759 72.6537 141.806 72.5871 141.854 72.5184C141.896 72.4598 141.937 72.4013 141.98 72.341C142.086 72.1888 142.189 72.0346 142.292 71.8802C142.797 72.0421 143.182 72.3456 143.604 72.6575C143.765 72.7754 143.926 72.8933 144.087 73.0112C144.169 73.0715 144.251 73.1317 144.336 73.1938C144.639 73.4159 144.944 73.6356 145.249 73.8551C146.021 74.4106 146.788 74.9732 147.553 75.5385C148.308 76.0954 149.068 76.6446 149.829 77.1926C150.276 77.515 150.723 77.8383 151.17 78.1614C151.542 78.4299 151.914 78.6982 152.286 78.9661C153.132 79.576 153.975 80.1909 154.814 80.8111C155.36 81.2146 155.91 81.6136 156.461 82.0105C156.745 82.2155 157.029 82.4207 157.313 82.6262C157.371 82.6686 157.43 82.7111 157.49 82.7548C158.2 83.2705 158.863 83.8152 159.501 84.4172C159.574 84.4841 159.648 84.5511 159.723 84.6201C161.664 86.4576 163.082 89.2186 163.381 91.8797C163.397 91.9976 163.397 91.9976 163.413 92.1179C163.68 94.4009 163.525 96.963 162.485 99.0437C162.566 99.0694 162.566 99.0694 162.648 99.0956C163.219 99.2819 163.776 99.4945 164.332 99.7215C165.072 100.02 165.814 100.311 166.563 100.587C166.836 100.687 167.106 100.792 167.376 100.899C169.799 101.848 172.361 102.391 174.92 102.825C175.071 102.851 175.071 102.851 175.226 102.879C176.694 103.129 178.16 103.151 179.645 103.154C179.738 103.155 179.831 103.155 179.928 103.155C182.709 103.161 185.247 102.623 187.87 101.724C187.996 101.681 187.996 101.681 188.124 101.637C189.517 101.159 190.884 100.641 192.228 100.039C192.332 99.9927 192.435 99.9467 192.542 99.8993C195.641 98.5152 198.588 96.8972 201.38 94.9642C201.44 94.9229 201.5 94.8815 201.562 94.839C203.488 93.5061 205.287 92.0161 207.002 90.4238C207.153 90.2842 207.305 90.1457 207.458 90.0075C208.258 89.2808 209.038 88.5441 209.742 87.7224C209.934 87.5033 210.13 87.2895 210.328 87.0764C210.885 86.4748 211.415 85.8568 211.924 85.2132C211.976 85.1488 212.027 85.0844 212.08 85.0181C212.928 83.9478 213.737 82.8564 214.511 81.7307C214.552 81.6717 214.593 81.6128 214.635 81.552C218.574 75.8661 221.501 69.2635 223.306 62.5995C223.468 62.0033 223.653 61.4158 223.843 60.8281C223.991 60.3683 224.126 59.907 224.254 59.4412C224.65 57.9954 225.148 56.5841 225.642 55.1692C225.777 54.782 225.91 54.3945 226.041 54.0059C226.75 51.9129 227.586 49.8486 228.522 47.8473C228.645 47.5842 228.765 47.3202 228.886 47.0561C230.033 44.5726 231.421 42.2154 233.212 40.1397C233.321 40.0129 233.321 40.0129 233.431 39.8835C236.485 36.3969 240.816 35.2429 244.708 38.1061Z" fill="#B0ADE7"/>
<path d="M80.5283 1.10632C80.7096 1.10532 80.7096 1.10532 80.8946 1.10429C81.2251 1.10273 81.5556 1.10207 81.8861 1.10194C82.093 1.1018 82.2999 1.10137 82.5067 1.10085C83.2295 1.09901 83.9523 1.09819 84.675 1.09835C85.347 1.09847 86.019 1.09637 86.6909 1.09323C87.2693 1.09062 87.8477 1.08956 88.426 1.08969C88.7708 1.08974 89.1156 1.08918 89.4604 1.08706C89.8454 1.08476 90.2303 1.08569 90.6153 1.08688C90.7283 1.08577 90.8414 1.08465 90.9578 1.0835C91.7741 1.08993 92.3367 1.2775 93.0269 1.70113C93.6175 2.30839 93.8039 2.87165 93.7947 3.71329C93.689 4.41017 93.392 4.94959 92.9833 5.51323C92.8839 5.65419 92.7847 5.79528 92.6857 5.93649C92.6322 6.01244 92.5788 6.08838 92.5237 6.16663C92.2185 6.60561 91.9237 7.05155 91.628 7.49701C91.491 7.70314 91.3539 7.90926 91.2169 8.11538C91.108 8.27928 91.108 8.27928 90.9968 8.44648C90.7479 8.82076 90.4983 9.19451 90.2485 9.56824C89.2801 11.018 88.3168 12.4709 87.3617 13.9295C86.6095 15.0783 85.8508 16.2225 85.0874 17.3639C84.7491 17.8701 84.4117 18.3769 84.0741 18.8835C83.9409 19.0833 83.8078 19.2831 83.6746 19.4829C83.6115 19.5776 83.5483 19.6724 83.4833 19.77C82.9939 20.5043 82.9939 20.5043 82.8486 20.7222C82.754 20.8641 82.6595 21.006 82.565 21.1479C82.2839 21.5698 82.0023 21.9916 81.7205 22.4131C81.104 23.3357 80.488 24.2586 79.8837 25.1894C79.8393 25.2575 79.7949 25.3256 79.7492 25.3958C79.2298 26.1997 79.1351 26.733 79.2247 27.7017C79.4117 28.2963 79.8758 28.7187 80.3686 29.0761C81.0885 29.3204 81.8512 29.3074 82.5509 29.0014C83.0892 28.6945 83.4807 28.2124 83.6569 27.613C83.7313 27.2595 83.7188 26.8999 83.722 26.54C83.7248 26.3676 83.7277 26.1952 83.7306 26.0229C83.7347 25.7524 83.7384 25.4819 83.741 25.2113C83.7437 24.9494 83.7483 24.6875 83.7531 24.4256C83.7535 24.3456 83.7538 24.2655 83.7541 24.1831C83.7702 23.4367 83.994 22.849 84.5117 22.298C85.1641 21.7018 85.949 21.6736 86.791 21.6786C86.9079 21.6778 87.0248 21.6769 87.1452 21.6761C87.5296 21.6738 87.9139 21.6745 88.2983 21.6754C88.4988 21.6751 88.6993 21.6746 88.8998 21.674C89.5296 21.6724 90.1593 21.6727 90.789 21.6744C91.4363 21.6761 92.0836 21.6745 92.7308 21.6713C93.2889 21.6686 93.8469 21.6679 94.4049 21.6687C94.7372 21.6692 95.0694 21.6688 95.4017 21.667C95.7726 21.6652 96.1434 21.6667 96.5143 21.6689C96.6228 21.6678 96.7313 21.6666 96.8431 21.6654C97.6396 21.6752 98.3128 21.8542 98.9123 22.4039C99.5171 23.0475 99.6598 23.6927 99.647 24.5477C99.6478 24.7268 99.6486 24.9059 99.6495 25.085C99.6493 25.364 99.6482 25.643 99.6454 25.922C99.598 27.4245 99.598 27.4245 100.313 28.6967C100.544 28.8793 100.735 28.9747 101.01 29.0947C101.085 29.13 101.161 29.1653 101.239 29.2016C101.558 29.3113 101.825 29.3208 102.162 29.3244C102.288 29.3269 102.413 29.3294 102.542 29.332C102.805 29.3355 103.067 29.3386 103.33 29.3413C104.167 29.3589 104.795 29.4011 105.455 29.9591C105.509 30.0026 105.562 30.0461 105.618 30.0909C106.122 30.6891 106.241 31.2741 106.234 32.0393C106.235 32.1773 106.235 32.1773 106.236 32.3181C106.238 32.6201 106.237 32.922 106.235 33.224C106.236 33.4351 106.236 33.6462 106.236 33.8573C106.237 34.2989 106.236 34.7405 106.234 35.1821C106.232 35.7469 106.233 36.3116 106.236 36.8763C106.237 37.312 106.237 37.7477 106.236 38.1834C106.235 38.3915 106.236 38.5997 106.237 38.8079C106.238 39.0994 106.236 39.3907 106.234 39.6821C106.235 39.7674 106.236 39.8526 106.236 39.9403C106.227 40.6184 106.04 41.1352 105.596 41.6523C105.533 41.705 105.47 41.7578 105.405 41.8121C105.343 41.8661 105.281 41.9201 105.217 41.9757C104.45 42.492 103.764 42.4711 102.856 42.4775C101.699 42.4795 101.699 42.4795 100.612 42.8257C100.495 42.8719 100.495 42.8719 100.376 42.919C100.161 43.0593 100.113 43.1868 100.015 43.4227C99.9645 43.5029 99.914 43.5831 99.862 43.6657C99.6592 44.1594 99.6784 44.6028 99.6831 45.1313C99.6819 45.3516 99.6806 45.5718 99.6793 45.7921C99.6789 46.137 99.6793 46.482 99.6807 46.8269C99.6816 47.1614 99.6794 47.4958 99.6769 47.8303C99.6789 47.983 99.6789 47.983 99.6809 48.1388C99.6723 48.9881 99.4247 49.6205 98.8835 50.2758C98.2552 50.7845 97.8198 50.9444 97.0251 50.9395C96.9377 50.9406 96.8503 50.9416 96.7602 50.9427C96.4733 50.9456 96.1865 50.9457 95.8996 50.9459C95.6999 50.9474 95.5001 50.949 95.3004 50.9508C94.7763 50.9552 94.2522 50.9572 93.728 50.9587C93.1926 50.9606 92.6571 50.9648 92.1217 50.9688C91.0722 50.9763 90.0227 50.9813 88.9732 50.9847C88.952 50.9255 88.9307 50.8662 88.9088 50.8052C88.5032 49.6776 88.0947 48.5537 87.6365 47.4463C87.5903 47.334 87.5441 47.2217 87.4965 47.106C87.4032 46.88 87.3097 46.6541 87.2158 46.4283C87.1312 46.2247 87.0469 46.0209 86.963 45.817C86.473 44.6262 85.9284 43.4831 85.3131 42.352C85.1984 42.1388 85.0869 41.9243 84.9768 41.7087C84.1002 39.9998 83.0858 38.3749 81.9105 36.8557C81.8436 36.7688 81.7766 36.6818 81.7077 36.5922C80.6006 35.1841 79.4471 33.8809 78.031 32.7762C77.9746 32.7322 77.9183 32.6881 77.8602 32.6427C74.9573 30.3906 71.518 29.3792 67.8561 29.8041C63.9879 30.3381 60.7392 32.5289 58.183 35.3904C57.9428 35.6553 57.6932 35.9073 57.4396 36.1592C57.4248 35.57 57.414 34.9808 57.4068 34.3914C57.4039 34.1913 57.3998 33.9913 57.3946 33.7913C57.3414 31.6893 57.3414 31.6893 58.0365 30.7862C58.1279 30.6495 58.2192 30.5126 58.3104 30.3758C58.403 30.2469 58.4961 30.1184 58.5898 29.9902C58.6952 29.8434 58.8005 29.6965 58.9057 29.5495C58.9862 29.4372 58.9862 29.4372 59.0684 29.3226C59.3347 28.9475 59.5932 28.5672 59.8519 28.1868C60.3368 27.4749 60.8266 26.7666 61.3192 26.06C61.9716 25.1236 62.6179 24.1833 63.2612 23.2406C63.893 22.3148 64.5298 21.3928 65.1738 20.4755C65.6687 19.7705 66.1571 19.0613 66.6411 18.3487C67.1823 17.5518 67.7304 16.7601 68.284 15.9717C68.6302 15.4786 68.974 14.984 69.3145 14.4869C69.7632 13.8318 70.216 13.1796 70.6698 12.528C71.3032 11.6182 71.9332 10.7062 72.5598 9.79173C73.2504 8.78406 73.9458 7.77995 74.644 6.77762C75.0672 6.16952 75.4873 5.55941 75.9047 4.94732C76.0089 4.79507 76.1132 4.64284 76.2175 4.49063C76.3847 4.2466 76.5513 4.00225 76.717 3.75716C76.8991 3.48779 77.0826 3.2194 77.2663 2.9511C77.321 2.86931 77.3758 2.78752 77.4322 2.70325C78.2886 1.46043 79.0341 1.10513 80.5283 1.10632Z" fill="#3E3F4E"/>
<path d="M244.708 38.1061C245.907 39.0545 246.959 40.1821 247.835 41.4332C247.895 41.5193 247.895 41.5193 247.957 41.6071C248.634 42.5789 249.23 43.5937 249.824 44.6172C251.627 47.7229 253.797 50.9601 256.589 53.2737C256.682 53.3562 256.776 53.4386 256.872 53.5236C257.805 54.3414 258.803 55.0305 259.871 55.6617C259.807 55.946 259.719 56.2052 259.606 56.4736C259.573 56.5521 259.539 56.6307 259.505 56.7116C259.47 56.794 259.435 56.8765 259.399 56.9614C259.363 57.0456 259.328 57.1298 259.291 57.2165C259.03 57.8304 258.761 58.4402 258.479 59.0447C257.265 58.6032 256.187 57.7648 255.196 56.9552C255.145 56.9139 255.093 56.8726 255.04 56.8301C254.204 56.1578 253.438 55.4162 252.678 54.6605C252.587 54.5699 252.495 54.4794 252.401 54.3862C251.873 53.8559 251.385 53.3088 250.917 52.7246C250.755 52.5217 250.59 52.3236 250.419 52.1275C248.836 50.276 247.56 48.1556 246.353 46.0467C245.061 43.7946 243.437 41.1215 240.853 40.2454C239.778 39.9737 239.014 40.2387 238.052 40.7647C231.48 44.8615 228.914 56.4502 226.958 63.4413C226.7 64.3579 226.419 65.267 226.135 66.1755C226.083 66.3392 226.032 66.503 225.981 66.6669C225.621 67.8284 225.21 68.9608 224.757 70.0892C224.703 70.2235 224.65 70.3579 224.597 70.4923C223.463 73.3419 222.223 76.1478 220.707 78.8168C220.586 79.0316 220.467 79.2476 220.348 79.4643C217.752 84.1975 214.338 88.4676 210.538 92.2839C210.46 92.362 210.383 92.4402 210.303 92.5207C209.886 92.9364 209.461 93.3356 209.015 93.7196C208.799 93.9058 208.59 94.0991 208.381 94.2926C207.879 94.7451 207.354 95.1599 206.82 95.5732C206.577 95.7619 206.337 95.9538 206.099 96.1492C205.199 96.887 204.262 97.5514 203.294 98.1976C203.092 98.3333 202.89 98.4703 202.689 98.608C197.759 101.968 192.171 104.431 186.459 106.108C186.39 106.128 186.322 106.149 186.251 106.169C182.584 107.218 178.564 107.116 174.82 106.606C174.662 106.586 174.504 106.567 174.346 106.547C169.587 105.918 164.971 104.233 160.595 102.327C160.724 101.971 160.877 101.696 161.105 101.394C161.416 100.961 161.676 100.515 161.926 100.045C161.96 99.9801 161.994 99.9154 162.03 99.8487C162.169 99.5829 162.291 99.3287 162.386 99.0437C162.753 99.1065 163.075 99.2089 163.42 99.3496C163.522 99.3911 163.625 99.4326 163.73 99.4754C163.838 99.5197 163.947 99.564 164.058 99.6096C164.284 99.7009 164.51 99.7921 164.735 99.8832C164.845 99.9273 164.954 99.9715 165.067 100.017C165.631 100.242 166.199 100.454 166.769 100.663C166.972 100.739 167.173 100.818 167.374 100.898C169.798 101.847 172.36 102.39 174.92 102.825C175.071 102.851 175.071 102.851 175.226 102.879C176.694 103.129 178.16 103.151 179.645 103.154C179.738 103.155 179.831 103.155 179.928 103.155C182.709 103.161 185.247 102.623 187.87 101.724C187.996 101.681 187.996 101.681 188.124 101.637C189.517 101.159 190.884 100.641 192.228 100.039C192.332 99.9927 192.435 99.9467 192.542 99.8993C195.64 98.5152 198.588 96.8972 201.38 94.9642C201.44 94.9229 201.5 94.8815 201.562 94.839C203.488 93.5061 205.286 92.0161 207.002 90.4238C207.153 90.2842 207.305 90.1457 207.458 90.0075C208.258 89.2808 209.038 88.5441 209.742 87.7224C209.933 87.5033 210.13 87.2895 210.328 87.0764C210.885 86.4748 211.415 85.8568 211.924 85.2132C211.976 85.1488 212.027 85.0844 212.079 85.0181C212.928 83.9478 213.737 82.8564 214.511 81.7307C214.552 81.6717 214.593 81.6128 214.635 81.552C218.574 75.8661 221.501 69.2635 223.306 62.5995C223.468 62.0033 223.653 61.4158 223.843 60.8281C223.991 60.3683 224.126 59.907 224.254 59.4412C224.65 57.9954 225.148 56.5841 225.641 55.1692C225.776 54.782 225.91 54.3945 226.041 54.0059C226.75 51.9129 227.586 49.8486 228.522 47.8473C228.645 47.5842 228.765 47.3202 228.886 47.0561C230.033 44.5726 231.421 42.2154 233.212 40.1397C233.321 40.0129 233.321 40.0129 233.431 39.8835C236.485 36.3969 240.816 35.2429 244.708 38.1061Z" fill="#615F9A"/>
<path d="M74.0519 30.3885C74.117 30.4136 74.1822 30.4387 74.2494 30.4646C79.231 32.428 82.4904 37.0119 84.9941 41.5325C85.0408 41.6159 85.0874 41.6993 85.1355 41.7853C86.9055 44.9671 88.2309 48.4324 89.371 51.8805C89.4103 51.9987 89.4495 52.1169 89.49 52.2387C90.0279 53.8647 90.5223 55.4989 90.9626 57.154C90.9879 57.2487 90.9879 57.2487 91.0136 57.3454C91.453 58.9981 91.8717 60.6558 92.2583 62.3217C92.2936 62.4736 92.3291 62.6254 92.3648 62.7772C92.4144 62.9885 92.4629 63.2 92.5111 63.4116C92.5526 63.5917 92.5526 63.5917 92.5949 63.7755C92.6554 64.1288 92.6642 64.4577 92.6537 64.8155C91.901 65.0859 91.1408 65.2629 90.3596 65.4311C90.1735 65.4718 90.1735 65.4718 89.9836 65.5133C89.68 65.5796 89.3764 65.6455 89.0726 65.711C88.7717 64.5375 88.4784 63.3639 88.2271 62.1787C87.6996 59.7033 87.0096 57.2801 86.2721 54.8606C86.2211 54.6931 86.1703 54.5256 86.1196 54.358C85.7763 53.2249 85.3941 52.1125 84.9762 51.0047C84.8621 50.6986 84.7523 50.391 84.6425 50.0833C83.212 46.0803 81.3005 42.2367 78.7272 38.846C78.6594 38.7554 78.5915 38.6648 78.5216 38.5716C76.7511 36.305 74.473 34.4422 71.6645 33.672C71.5481 33.6385 71.5481 33.6385 71.4294 33.6043C69.2043 33.0582 66.5475 33.7124 64.6133 34.8439C63.6293 35.442 62.7518 36.1663 61.9159 36.9555C61.8499 37.0163 61.7838 37.077 61.7158 37.1397C60.264 38.5241 59.1416 40.3198 58.142 42.0467C58.0416 42.2199 57.9398 42.3922 57.8378 42.5644C56.6232 44.6445 55.5917 46.8442 54.6549 49.0608C54.5154 49.3849 54.3648 49.7026 54.2128 50.021C53.5505 51.4228 52.9703 52.8643 52.3849 54.2995C52.151 54.873 51.8995 55.4359 51.6362 55.9965C51.4255 56.4576 51.2277 56.9237 51.0296 57.3903C50.697 58.1707 50.3555 58.9441 49.9893 59.7095C49.8556 59.99 49.7232 60.2711 49.5907 60.5521C48.9041 62.0008 48.1789 63.4186 47.3925 64.8155C47.3434 64.9034 47.2943 64.9913 47.2438 65.0819C46.2478 66.8647 45.2034 68.5918 43.9508 70.207C43.8193 70.3773 43.6897 70.549 43.5608 70.7213C42.1154 72.6467 40.4608 74.5004 38.5392 75.9595C38.4423 76.0371 38.3454 76.1147 38.2455 76.1946C36.6459 77.47 34.899 78.4379 33.0681 79.3425C33.0003 79.3762 32.9326 79.4099 32.8628 79.4447C30.9204 80.3953 28.7221 80.8793 26.6022 81.233C26.5104 81.2492 26.4185 81.2655 26.3239 81.2823C21.5422 82.106 15.6511 81.7176 11.1117 79.9608C10.7259 79.8178 10.3357 79.7038 9.94015 79.5912C9.30274 79.4088 8.68207 79.1979 8.05944 78.9693C7.66178 78.831 7.26107 78.7121 6.85642 78.5962C6.33518 78.447 5.82392 78.2857 5.31455 78.0987C4.81728 77.9163 4.31893 77.7587 3.80999 77.6136C3.15355 77.4247 2.50426 77.2187 1.85779 76.998C1.77366 76.97 1.68952 76.9421 1.60284 76.9133C1.06907 76.728 0.62994 76.5423 0.304658 76.0547C0.0698811 75.5241 -0.0768925 75.047 0.0423705 74.467C0.30275 73.8649 0.690521 73.4604 1.26716 73.1486C1.9697 72.9525 2.47271 73.1018 3.13115 73.3596C3.42119 73.4707 3.71144 73.5634 4.00894 73.6523C4.59721 73.8299 5.1797 74.0225 5.76219 74.2182C6.32413 74.4069 6.88578 74.594 7.45327 74.7655C8.11362 74.965 8.76646 75.1858 9.42035 75.4054C9.99688 75.5984 10.5751 75.7826 11.1576 75.9571C11.4 76.0332 11.6386 76.1131 11.878 76.1981C14.0341 76.9591 16.2341 77.27 18.4967 77.514C18.6989 77.5359 18.901 77.5586 19.1028 77.5834C19.9026 77.6774 20.7061 77.6752 21.5103 77.6758C21.5888 77.6759 21.6672 77.676 21.748 77.676C27.525 77.6682 33.0397 75.9361 37.2911 71.9192C37.497 71.7256 37.7055 71.543 37.9237 71.3638C38.2323 71.1027 38.4911 70.8116 38.7522 70.5037C38.945 70.2788 39.1458 70.0633 39.3475 69.8464C40.9271 68.0873 42.2418 66.068 43.4135 64.0195C43.4703 63.9203 43.4703 63.9203 43.5282 63.819C43.828 63.2923 44.1198 62.7614 44.4083 62.2285C44.4527 62.1465 44.4972 62.0645 44.543 61.9801C45.9767 59.3213 47.2128 56.5642 48.3954 53.7863C48.713 53.0408 49.0321 52.2959 49.3509 51.5509C49.4071 51.4196 49.4071 51.4196 49.4645 51.2856C50.012 50.0068 50.5626 48.7294 51.1198 47.4548C51.195 47.2826 51.2701 47.1104 51.345 46.9381C51.8193 45.8481 52.3248 44.7808 52.8637 43.7215C52.9485 43.5492 53.033 43.3768 53.117 43.2041C55.0849 39.1814 57.564 35.1701 61.2196 32.478C61.3059 32.4141 61.3059 32.4141 61.394 32.3489C62.9333 31.2254 64.6463 30.4505 66.4918 29.9905C66.5543 29.9732 66.6169 29.9559 66.6814 29.938C67.2092 29.7954 67.7323 29.7301 68.2761 29.6795C68.3599 29.6709 68.4437 29.6623 68.53 29.6535C70.3914 29.4729 72.3062 29.7106 74.0519 30.3885Z" fill="#615F9A"/>
<path d="M133.569 14.2448C133.694 14.3492 133.816 14.4572 133.936 14.5682C134.001 14.6279 134.066 14.6877 134.133 14.7493C136.901 17.5664 136.774 22.7625 136.757 26.4106C136.736 28.743 136.636 31.1109 136.025 33.3737C136.007 33.4415 135.99 33.5094 135.971 33.5794C135.573 35.0825 134.977 36.4654 133.836 37.5527C133.744 37.645 133.652 37.7374 133.557 37.8325C132.385 38.6369 131.138 38.7092 129.764 38.4917C128.537 38.1451 127.638 37.1386 127.024 36.0679C126.421 34.8407 126.014 33.5615 125.779 32.217C125.762 32.1285 125.746 32.04 125.729 31.9488C125.433 30.263 125.35 28.575 125.361 26.8662C125.362 26.5712 125.363 26.2762 125.363 25.9811C125.378 17.3399 125.378 17.3399 128.09 14.6245C128.457 14.2843 128.816 14.0024 129.261 13.7722C129.325 13.7387 129.389 13.7052 129.456 13.6707C130.793 13.1095 132.415 13.4442 133.569 14.2448Z" fill="#F4F7FD"/>
<path d="M107.612 92.6319C107.7 92.6312 107.788 92.6306 107.879 92.6299C109.161 92.6242 110.396 92.6542 111.554 93.2724C111.587 93.1739 111.62 93.0754 111.653 92.9739C111.697 93.1155 111.697 93.1155 111.74 93.26C111.829 93.5761 111.829 93.5761 112.051 93.7699C112.121 94.2033 112.025 94.5558 111.784 94.9177C110.927 95.9092 109.839 96.5612 108.682 97.1529C108.565 97.2129 108.449 97.2729 108.329 97.3347C107.379 97.8186 106.409 98.2183 105.403 98.5697C105.064 98.6889 104.728 98.8167 104.392 98.9439C103.273 99.3665 102.149 99.6987 100.99 99.9894C100.566 100.096 100.148 100.214 99.7285 100.337C99.0581 100.529 98.3852 100.688 97.7021 100.828C97.5808 100.853 97.4596 100.878 97.3347 100.904C96.3363 101.104 95.3337 101.266 94.3261 101.413C94.2186 101.428 94.2186 101.428 94.109 101.444C93.6575 101.51 93.2055 101.571 92.7532 101.63C92.6711 101.642 92.589 101.653 92.5045 101.665C91.6858 101.765 90.8573 101.752 90.0338 101.754C89.7657 101.755 89.4978 101.758 89.2298 101.761C88.3879 101.766 87.5691 101.741 86.738 101.598C86.6699 101.586 86.6019 101.575 86.5317 101.563C85.9668 101.453 85.5095 101.233 85.0936 100.834C84.8519 100.472 84.8785 100.266 84.8946 99.8394C84.9603 99.8394 85.0259 99.8394 85.0936 99.8394C85.1019 99.7328 85.1019 99.7328 85.1103 99.6241C85.2198 99.2508 85.4381 99.0565 85.7215 98.8071C85.7743 98.7597 85.827 98.7124 85.8814 98.6635C87.1589 97.5509 87.1589 97.5509 87.8789 97.5509C87.8789 97.4852 87.8789 97.4196 87.8789 97.3519C88.9902 96.8124 90.1005 96.286 91.261 95.8594C91.3555 95.8244 91.4499 95.7895 91.5472 95.7534C96.6868 93.8691 102.126 92.6541 107.612 92.6319Z" fill="#9086DC"/>
<path d="M75.5565 35.4876C76.9458 36.5627 78.2242 37.9011 79.2246 39.3432C79.3159 39.4723 79.4072 39.6013 79.4985 39.7304C81.1146 42.0328 81.1146 42.0328 81.1146 42.4277C78.2914 42.4394 75.4682 42.4481 72.6449 42.4535C71.334 42.4561 70.0231 42.4596 68.7122 42.4653C67.5695 42.4702 66.4268 42.4734 65.2841 42.4746C64.6791 42.4752 64.0742 42.4767 63.4693 42.4803C62.8995 42.4837 62.3298 42.4848 61.7601 42.484C61.5513 42.4842 61.3425 42.4851 61.1338 42.4871C59.0318 42.5054 59.0318 42.5054 58.3348 41.9302C58.302 41.8646 58.2692 41.7989 58.2354 41.7312C58.3087 41.5648 58.3087 41.5648 58.43 41.3655C58.4746 41.292 58.5191 41.2184 58.5651 41.1427C58.6142 41.064 58.6634 40.9853 58.7141 40.9042C58.7641 40.8233 58.8142 40.7425 58.8658 40.6592C59.3109 39.9511 59.7942 39.2936 60.3243 38.6467C60.3674 38.5936 60.4104 38.5404 60.4548 38.4856C64.3357 33.7048 70.215 31.6138 75.5565 35.4876Z" fill="#3E3F4E"/>
<path d="M135.726 89.9888C136.232 90.1507 136.617 90.4542 137.038 90.7661C137.199 90.8839 137.36 91.0017 137.521 91.1194C137.603 91.1797 137.685 91.2399 137.77 91.3019C138.148 91.5794 138.529 91.8536 138.91 92.128C139.058 92.2354 139.207 92.3428 139.356 92.4502C139.43 92.5035 139.503 92.5568 139.579 92.6118C139.809 92.7773 140.038 92.943 140.267 93.1086C140.941 93.596 141.615 94.0829 142.292 94.5658C142.815 94.9391 143.337 95.3147 143.859 95.6914C143.934 95.7458 144.009 95.8002 144.087 95.8563C144.469 96.1323 144.85 96.4084 145.231 96.6848C145.956 97.2098 146.683 97.7322 147.415 98.2473C148.223 98.8162 149.025 99.3943 149.825 99.9745C150.199 100.245 150.572 100.515 150.946 100.785C151.095 100.892 151.244 101 151.393 101.107C151.771 101.381 152.15 101.654 152.528 101.927C152.752 102.088 152.974 102.249 153.197 102.411C153.489 102.622 153.782 102.831 154.076 103.039C154.214 103.137 154.352 103.236 154.49 103.334C154.554 103.379 154.619 103.424 154.685 103.47C154.837 103.579 154.981 103.698 155.124 103.819C155.124 103.918 155.124 104.016 155.124 104.118C152.839 105.139 149.969 105.276 147.564 104.615C147.494 104.598 147.425 104.58 147.353 104.562C144.887 103.93 142.74 102.463 140.601 101.133C140.509 101.076 140.418 101.02 140.324 100.962C138.612 99.9027 136.963 98.7553 135.324 97.5891C135.141 97.4592 134.958 97.33 134.774 97.201C133.846 96.5459 132.944 95.8576 132.046 95.1628C132.227 94.7863 132.454 94.4556 132.699 94.118C132.743 94.0561 132.788 93.9942 132.834 93.9304C133.176 93.4555 133.526 92.9864 133.879 92.519C134.214 92.0738 134.544 91.6251 134.875 91.1766C134.967 91.052 134.967 91.052 135.06 90.925C135.118 90.8468 135.176 90.7686 135.235 90.688C135.287 90.618 135.338 90.5479 135.391 90.4758C135.507 90.316 135.617 90.1527 135.726 89.9888Z" fill="#E4E2F8"/>
<path d="M96.9312 67.7012C98.6532 67.961 100.202 69.4247 101.408 70.5867C101.478 70.6505 101.548 70.7144 101.62 70.7802C103.689 72.7199 104.52 75.3263 105.207 77.9899C105.406 78.7614 105.406 78.7614 105.645 79.5207C105.804 79.9804 105.906 80.447 106.008 80.9222C106.198 81.784 106.411 82.6375 106.636 83.4906C106.895 84.475 107.124 85.4595 107.325 86.4572C107.384 86.7431 107.447 87.0279 107.51 87.3128C107.534 87.4164 107.557 87.5201 107.58 87.6269C107.626 87.8291 107.671 88.0311 107.717 88.2331C107.737 88.3249 107.758 88.4168 107.779 88.5114C107.797 88.5927 107.815 88.6739 107.834 88.7576C107.875 89.0064 107.88 89.2399 107.873 89.4917C106.115 89.6026 104.362 89.6019 102.601 89.5912C102.579 89.5036 102.579 89.5036 102.556 89.4143C102.284 88.354 102.006 87.2963 101.7 86.2455C101.473 85.4662 101.275 84.6833 101.091 83.893C100.844 82.8308 100.563 81.7777 100.273 80.7263C99.9543 79.5693 99.6541 78.4088 99.3651 77.2438C99.1195 76.2547 98.8613 75.2702 98.5896 74.288C98.2681 73.1225 97.9656 71.9535 97.6751 70.7799C97.4932 70.0457 97.3049 69.314 97.1029 68.585C97.029 68.2918 96.9766 68 96.9312 67.7012Z" fill="#E4E2F8"/>
<path d="M132.865 73.6405C133.52 73.9831 134.106 74.4844 134.693 74.9321C135.841 75.806 137.022 76.6373 138.213 77.4518C138.174 77.9921 137.857 78.3546 137.548 78.7764C137.497 78.8482 137.445 78.9199 137.392 78.9939C137.042 79.4797 136.684 79.959 136.323 80.4368C135.919 80.3514 135.643 80.1569 135.316 79.9144C135.256 79.8706 135.196 79.8267 135.133 79.7814C135.002 79.6859 134.871 79.59 134.74 79.494C134.456 79.2864 134.171 79.0809 133.886 78.8755C133.66 78.7125 133.434 78.549 133.209 78.3854C132.89 78.1546 132.569 77.9264 132.248 77.6998C132.167 77.6426 132.086 77.5855 132.003 77.5266C131.85 77.4177 131.696 77.3095 131.541 77.202C131.055 76.8564 130.627 76.5037 130.355 75.9593C130.306 75.3768 130.269 74.8459 130.523 74.3114C131.199 73.5983 131.886 73.3352 132.865 73.6405Z" fill="#615F9A"/>
<path d="M125.768 84.3932C126.131 84.6057 126.467 84.8504 126.805 85.1009C126.881 85.1568 126.958 85.2127 127.036 85.2704C127.281 85.4496 127.525 85.6296 127.769 85.8098C127.935 85.932 128.101 86.0542 128.267 86.1763C128.588 86.4124 128.908 86.6491 129.228 86.886C129.49 87.0793 129.753 87.2712 130.017 87.4605C130.116 87.5314 130.215 87.6023 130.318 87.6754C130.401 87.7344 130.484 87.7934 130.57 87.8542C130.753 87.9988 130.753 87.9988 130.852 88.1978C130.633 88.513 130.413 88.8281 130.193 89.143C130.132 89.2313 130.07 89.3195 130.007 89.4105C129.635 89.9426 129.256 90.4676 128.863 90.9838C128.357 90.8219 127.972 90.5184 127.551 90.2065C127.391 90.0892 127.23 89.9719 127.07 89.8547C126.988 89.7945 126.906 89.7344 126.822 89.6724C126.506 89.4409 126.188 89.2121 125.87 88.9834C125.575 88.771 125.28 88.5574 124.986 88.3437C124.857 88.2502 124.727 88.1569 124.598 88.0639C123.214 87.067 123.214 87.067 122.994 86.4068C122.923 85.8025 122.891 85.2703 123.255 84.7588C123.966 83.9633 124.859 83.9123 125.768 84.3932Z" fill="#615F9A"/>
<path d="M96.3344 98.1481C96.6644 98.4095 96.8095 98.5363 96.894 98.9503C96.8318 99.2426 96.8318 99.2426 96.608 99.4727C95.8069 99.9644 94.5568 99.8314 93.6661 99.6721C92.8962 99.4525 92.1154 99.1312 91.6591 98.4466C91.6156 98.2041 91.6156 98.2041 91.6591 97.9491C92.8001 96.7387 95.1074 97.3981 96.3344 98.1481Z" fill="#615F9A"/>
<path d="M105.389 95.0543C105.812 95.2884 106.121 95.4931 106.294 95.9654C106.282 96.2577 106.282 96.2577 106.12 96.4815C105.633 96.8403 105.184 96.8904 104.591 96.8858C104.516 96.8853 104.442 96.8848 104.365 96.8843C103.184 96.8598 102.205 96.5699 101.252 95.8721C101.047 95.5688 101.082 95.3208 101.109 94.9642C102.478 94.1635 103.984 94.38 105.389 95.0543Z" fill="#615F9A"/>
</svg>
