<svg width="87" height="87" viewBox="0 0 87 87" fill="none" xmlns="http://www.w3.org/2000/svg">
<path d="M36.5112 16.0117C36.6778 16.0102 36.8444 16.0086 37.0161 16.0071C37.5649 16.0027 38.1137 16.0018 38.6626 16.0013C39.046 15.9999 39.4293 15.9983 39.8127 15.9967C40.6158 15.994 41.4189 15.9931 42.222 15.9934C43.2478 15.9935 44.2735 15.9872 45.2992 15.9793C46.0911 15.9742 46.8829 15.9733 47.6747 15.9736C48.0527 15.973 48.4307 15.971 48.8087 15.9675C52.4814 15.9362 52.4814 15.9362 54.0115 16.9922C55.2806 18.2613 55.4345 19.6166 55.4448 21.337C55.4439 21.5789 55.4431 21.8209 55.4422 22.0702C55.4435 22.4591 55.4435 22.4591 55.4448 22.8559C55.4472 23.7253 55.4463 24.5947 55.4454 25.4641C55.4461 26.0872 55.4475 26.7103 55.4489 27.3334C55.4518 28.8506 55.4522 30.3678 55.4517 31.885C55.4513 33.1184 55.4517 34.3518 55.4527 35.5852C55.4528 35.7608 55.4529 35.9364 55.4531 36.1173C55.4534 36.474 55.4536 36.8308 55.4539 37.1875C55.4564 40.5325 55.4559 43.8775 55.4545 47.2226C55.4533 50.2816 55.4559 53.3406 55.4602 56.3996C55.4647 59.5417 55.4666 62.6838 55.4657 65.826C55.4653 67.5896 55.4658 69.3532 55.4691 71.1168C55.4718 72.6182 55.4721 74.1197 55.4693 75.6211C55.468 76.3868 55.4681 77.1525 55.4705 77.9182C55.4729 78.7491 55.471 79.5799 55.4681 80.4108C55.4698 80.6517 55.4715 80.8927 55.4732 81.1409C55.4618 82.6903 55.3379 84.0938 54.3043 85.3317C54.17 85.4357 54.0357 85.5397 53.8973 85.6468C53.7629 85.7549 53.6286 85.863 53.4902 85.9744C52.6134 86.5503 51.7268 86.4961 50.7196 86.4977C50.5479 86.4989 50.3761 86.5 50.1992 86.5012C49.6308 86.5045 49.0625 86.5061 48.4941 86.5073C48.0988 86.5086 47.7034 86.51 47.308 86.5113C46.4788 86.5137 45.6495 86.515 44.8202 86.5158C43.759 86.5171 42.6979 86.5226 41.6368 86.5291C40.8198 86.5333 40.0029 86.5345 39.186 86.5349C38.7949 86.5355 38.4038 86.5374 38.0127 86.5404C37.4646 86.5443 36.9167 86.5438 36.3687 86.5424C36.208 86.5445 36.0473 86.5466 35.8818 86.5487C34.8258 86.5398 34.114 86.3281 33.2166 85.7754C31.6174 84.1398 31.5497 82.6439 31.5574 80.4689C31.5565 80.2096 31.5557 79.9503 31.5548 79.6831C31.5524 78.8137 31.5533 77.9443 31.5542 77.0749C31.5535 76.4518 31.5521 75.8287 31.5507 75.2056C31.5478 73.6884 31.5474 72.1712 31.5479 70.654C31.5483 69.4206 31.5479 68.1872 31.5469 66.9538C31.5467 66.6904 31.5467 66.6904 31.5465 66.4217C31.5462 66.065 31.546 65.7082 31.5457 65.3515C31.5432 62.0065 31.5437 58.6615 31.5451 55.3164C31.5463 52.2574 31.5437 49.1984 31.5394 46.1394C31.5349 42.9973 31.533 39.8552 31.5339 36.713C31.5343 34.9494 31.5338 33.1858 31.5305 31.4222C31.5278 29.9208 31.5275 28.4193 31.5303 26.9179C31.5316 26.1522 31.5315 25.3865 31.5291 24.6208C31.5267 23.7899 31.5286 22.9591 31.5315 22.1282C31.5298 21.8873 31.5281 21.6463 31.5264 21.3981C31.537 19.9482 31.5972 18.4749 32.6101 17.3301C33.8368 16.2441 34.9074 16.021 36.5112 16.0117ZM39.615 24.0761C39.615 42.0238 39.615 59.9714 39.615 78.4629C42.179 78.4629 44.7429 78.4629 47.3846 78.4629C47.3846 60.5152 47.3846 42.5676 47.3846 24.0761C44.8206 24.0761 42.2567 24.0761 39.615 24.0761Z" fill="#332948"/>
<path d="M7.47308 15.9568C7.86059 15.9562 8.2481 15.9553 8.6356 15.9542C9.44542 15.9528 10.2551 15.9548 11.0649 15.9591C12.0992 15.9643 13.1332 15.9613 14.1675 15.9558C14.9669 15.9525 15.7664 15.9535 16.5659 15.9559C16.9471 15.9565 17.3282 15.9558 17.7094 15.9536C21.4337 15.9373 21.4337 15.9373 22.9336 16.9923C23.9808 18.308 24.1102 19.3444 24.1098 20.9756C24.1106 21.1746 24.1115 21.3736 24.1123 21.5786C24.1149 22.248 24.1157 22.9174 24.1166 23.5868C24.118 24.0658 24.1196 24.5447 24.1212 25.0236C24.1251 26.3268 24.1276 27.6299 24.1294 28.933C24.1306 29.7471 24.132 30.5611 24.1334 31.3751C24.1378 33.9215 24.141 36.4679 24.143 39.0143C24.1452 41.9545 24.1512 44.8947 24.1604 47.8349C24.1673 50.1068 24.1707 52.3788 24.1715 54.6508C24.172 56.008 24.1741 57.3652 24.1798 58.7224C24.1851 59.9996 24.1861 61.2766 24.1837 62.5538C24.1836 63.0221 24.1851 63.4904 24.1882 63.9587C24.1923 64.5991 24.1906 65.2392 24.1876 65.8795C24.1901 66.064 24.1926 66.2485 24.1952 66.4386C24.1808 67.7142 23.8952 68.7217 23.1621 69.7794C21.9326 70.758 20.9697 70.9565 19.4414 70.9624C19.1882 70.9647 19.1882 70.9647 18.93 70.967C18.3712 70.9715 17.8125 70.9741 17.2537 70.9764C17.0625 70.9774 16.8713 70.9783 16.6743 70.9792C15.6617 70.984 14.6491 70.9873 13.6365 70.9894C12.5933 70.992 11.5502 70.9998 10.507 71.0089C9.70259 71.0149 8.89824 71.0168 8.09384 71.0176C7.70947 71.0187 7.3251 71.0214 6.94075 71.0256C2.92104 71.0673 2.92104 71.0673 1.68164 70.0079C0.647718 68.7608 0.372107 67.6896 0.393972 66.0984C0.392189 65.8965 0.390407 65.6947 0.388571 65.4868C0.384035 64.8145 0.387615 64.1425 0.391217 63.4702C0.389668 62.9866 0.387633 62.503 0.38515 62.0194C0.379948 60.7088 0.381958 59.3982 0.385583 58.0875C0.38848 56.7148 0.385792 55.342 0.383999 53.9692C0.381922 51.664 0.384657 49.3589 0.390101 47.0537C0.396319 44.3901 0.394305 41.7265 0.388015 39.0629C0.382827 36.7744 0.382099 34.4859 0.385088 32.1974C0.386868 30.8312 0.387111 29.4651 0.383333 28.099C0.380028 26.8145 0.382329 25.5301 0.388925 24.2457C0.390433 23.7748 0.390005 23.3038 0.387482 22.8329C0.38435 22.1891 0.388286 21.5456 0.393972 20.9018C0.391423 20.7163 0.388874 20.5309 0.386248 20.3398C0.409453 18.9812 0.811912 18.0401 1.68164 16.9923C3.26599 15.6458 5.51512 15.9458 7.47308 15.9568ZM8.53711 24.0763C8.53711 36.896 8.53711 49.7157 8.53711 62.9239C11.0256 62.9239 13.5142 62.9239 16.0781 62.9239C16.0781 50.1042 16.0781 37.2845 16.0781 24.0763C13.5896 24.0763 11.1011 24.0763 8.53711 24.0763Z" fill="#332948"/>
<path d="M67.5588 16.0377C67.812 16.0354 67.812 16.0354 68.0703 16.0331C68.629 16.0286 69.1877 16.0259 69.7465 16.0237C69.9377 16.0227 70.1289 16.0218 70.3259 16.0208C71.3385 16.0161 72.3511 16.0128 73.3637 16.0107C74.407 16.0081 75.4501 16.0003 76.4932 15.9912C77.2976 15.9852 78.102 15.9833 78.9064 15.9825C79.2908 15.9814 79.6751 15.9787 80.0595 15.9745C84.0612 15.933 84.0612 15.933 85.3186 16.9922C86.707 18.483 86.6216 20.1571 86.6018 22.0897C86.6026 22.4187 86.6038 22.7477 86.6056 23.0767C86.6088 23.9657 86.605 24.8546 86.5996 25.7437C86.595 26.676 86.5963 27.6083 86.5969 28.5406C86.5969 30.1054 86.5924 31.6701 86.585 33.2349C86.5766 35.0423 86.5746 36.8497 86.5762 38.6571C86.5776 40.3988 86.5752 42.1403 86.5707 43.882C86.5688 44.622 86.5682 45.3619 86.5686 46.102C86.5688 46.9734 86.5655 47.8448 86.5596 48.7163C86.558 49.0355 86.5575 49.3548 86.5583 49.6741C86.5591 50.1108 86.5553 50.5475 86.5513 50.9843C86.55 51.3504 86.55 51.3504 86.5487 51.7239C86.4015 52.8812 85.9589 53.604 85.1329 54.4116C83.9103 55.2746 82.8552 55.4402 81.3755 55.4456C81.2155 55.4467 81.0555 55.4479 80.8907 55.4491C80.3653 55.4523 79.8401 55.4521 79.3147 55.4515C78.947 55.4524 78.5794 55.4534 78.2117 55.4545C77.4422 55.4562 76.6727 55.4562 75.9032 55.4549C74.9208 55.4536 73.9384 55.4575 72.9559 55.4628C72.1968 55.4662 71.4378 55.4664 70.6787 55.4656C70.3166 55.4658 69.9546 55.467 69.5925 55.4693C65.4759 55.4923 65.4759 55.4923 64.0532 54.3045C63.9493 54.1702 63.8453 54.0359 63.7381 53.8975C63.63 53.7631 63.5219 53.6288 63.4105 53.4904C62.8903 52.6983 62.8941 51.9953 62.8904 51.0754C62.8888 50.7963 62.8872 50.5173 62.8855 50.2298C62.8848 49.9201 62.8842 49.6104 62.8836 49.3006C62.8822 48.9748 62.8807 48.649 62.8791 48.3231C62.8742 47.2525 62.8719 46.1819 62.8696 45.1112C62.8687 44.7423 62.8677 44.3735 62.8668 44.0046C62.8624 42.2713 62.8592 40.538 62.8573 38.8047C62.855 36.8055 62.849 34.8064 62.8398 32.8073C62.8329 31.2611 62.8295 29.715 62.8288 28.1688C62.8282 27.2458 62.8262 26.3229 62.8204 25.3999C62.8151 24.5309 62.8141 23.662 62.8165 22.793C62.8166 22.475 62.8152 22.157 62.812 21.839C62.7953 20.0531 62.8364 18.7315 63.8381 17.2207C65.0676 16.2421 66.0305 16.0436 67.5588 16.0377ZM70.9221 24.0762C70.9221 31.768 70.9221 39.4598 70.9221 47.3848C73.4106 47.3848 75.8992 47.3848 78.4631 47.3848C78.4631 39.6929 78.4631 32.0011 78.4631 24.0762C75.9746 24.0762 73.486 24.0762 70.9221 24.0762Z" fill="#332948"/>
<path d="M4.98706 0.494794C5.24692 0.491991 5.24692 0.491991 5.51203 0.489132C6.08561 0.48346 6.65917 0.479679 7.23277 0.476384C7.52715 0.474559 7.52715 0.474559 7.82749 0.472697C8.86676 0.466591 9.90603 0.462163 10.9453 0.458866C11.8038 0.45582 12.6621 0.449461 13.5206 0.44012C14.5586 0.428827 15.5964 0.423187 16.6345 0.421566C17.029 0.420035 17.4236 0.416566 17.8182 0.411079C21.5418 0.362254 21.5418 0.362254 22.8505 1.36458C23.7734 2.30365 24.1263 3.11543 24.176 4.43792C24.1183 5.62801 23.8735 6.4519 23.0128 7.31668C21.8465 8.35977 20.998 8.57135 19.4412 8.57736C19.1881 8.57962 19.1881 8.57962 18.9298 8.58191C18.371 8.58642 17.8123 8.58909 17.2535 8.59137C17.0623 8.5923 16.8711 8.59323 16.6741 8.59419C15.6615 8.59896 14.6489 8.60222 13.6363 8.60437C12.5931 8.60689 11.55 8.61475 10.5068 8.62383C9.7024 8.62982 8.89805 8.63172 8.09364 8.63254C7.70927 8.63365 7.32491 8.63629 6.94056 8.64054C2.81513 8.68332 2.81513 8.68332 1.25298 7.22206C0.454646 5.93863 0.298354 4.77313 0.538868 3.28106C0.925422 2.16663 1.61955 1.41802 2.59551 0.767384C3.40561 0.497349 4.14369 0.499817 4.98706 0.494794Z" fill="#332948"/>
<path d="M67.4795 0.420613C67.6532 0.419011 67.827 0.417409 68.006 0.415759C68.5758 0.411762 69.1453 0.41439 69.7151 0.417489C70.1137 0.416872 70.5124 0.415985 70.911 0.414839C71.7446 0.413494 72.5782 0.415439 73.4119 0.41972C74.4776 0.424928 75.5432 0.421928 76.609 0.416455C77.4316 0.413144 78.2542 0.414207 79.0768 0.416572C79.4696 0.417179 79.8625 0.416441 80.2553 0.414305C80.8055 0.41197 81.3553 0.415541 81.9054 0.420613C82.1462 0.417838 82.1462 0.417838 82.3919 0.415006C83.6297 0.436025 84.3172 0.777174 85.3184 1.45295C86.414 2.63498 86.543 3.59241 86.5244 5.15651C86.4265 6.14202 86.1559 6.60911 85.5469 7.39436C84.2997 8.3616 83.3575 8.5713 81.819 8.57376C81.5647 8.57546 81.5647 8.57546 81.3053 8.57719C80.7444 8.58053 80.1834 8.58209 79.6225 8.58335C79.2323 8.58467 78.842 8.58598 78.4518 8.5873C77.6333 8.5897 76.8147 8.59104 75.9962 8.59183C74.9489 8.59308 73.9016 8.59857 72.8543 8.60508C72.048 8.60934 71.2416 8.61053 70.4353 8.61088C70.0493 8.61157 69.6633 8.6134 69.2773 8.6164C68.7363 8.62031 68.1956 8.61987 67.6546 8.61839C67.4168 8.62155 67.4168 8.62155 67.1742 8.62477C65.9353 8.61418 65.0131 8.30297 64.0977 7.45863C63.9884 7.3243 63.8791 7.18998 63.7666 7.05158C63.6543 6.91726 63.5421 6.78293 63.4265 6.64454C62.7298 5.64609 62.7739 4.44508 62.9239 3.28108C63.3944 2.04256 64.052 1.3824 65.2125 0.735878C65.9523 0.414566 66.6879 0.411489 67.4795 0.420613Z" fill="#332948"/>
<path d="M36.2804 0.502185C36.4521 0.50105 36.6239 0.499916 36.8008 0.498747C37.3692 0.495409 37.9375 0.493852 38.5059 0.492589C38.9013 0.491274 39.2966 0.489959 39.692 0.488642C40.5213 0.486241 41.3506 0.484905 42.1798 0.484109C43.241 0.482856 44.3021 0.477367 45.3633 0.470861C46.1802 0.466599 46.9971 0.465415 47.814 0.465065C48.2051 0.464375 48.5962 0.462544 48.9873 0.459539C49.5354 0.455629 50.0833 0.456072 50.6313 0.457553C50.792 0.455447 50.9527 0.453341 51.1182 0.451172C52.1742 0.46008 52.886 0.671836 53.7834 1.22455C54.7346 2.19736 55.3701 3.06798 55.3902 4.46216C55.3096 5.66534 55.0445 6.46002 54.2405 7.39448C52.969 8.35458 52.1157 8.56575 50.5407 8.5775C50.2909 8.57975 50.2909 8.57975 50.036 8.58205C49.4847 8.58656 48.9334 8.58923 48.3821 8.5915C48.1934 8.59244 48.0047 8.59337 47.8103 8.59433C46.811 8.59909 45.8117 8.60236 44.8125 8.6045C43.7831 8.60703 42.7538 8.61488 41.7245 8.62397C40.9307 8.62996 40.1369 8.63186 39.3431 8.63268C38.9638 8.63379 38.5845 8.63643 38.2053 8.64068C34.5156 8.67946 34.5156 8.67946 32.9885 7.62299C32.1211 6.75561 31.6296 5.85998 31.6094 4.61301C31.7133 3.10268 32.2094 2.17845 33.3456 1.15314C34.3033 0.490081 35.1587 0.503953 36.2804 0.502185Z" fill="#332948"/>
</svg>
