<svg width="109" height="99" viewBox="0 0 109 99" fill="none" xmlns="http://www.w3.org/2000/svg">
<path d="M0.798828 0.597656C36.2416 0.597656 71.6844 0.597656 108.201 0.597656C108.201 13.5682 108.201 26.5388 108.201 39.9023C82.4863 39.9023 56.7714 39.9023 30.2773 39.9023C30.2773 51.063 30.2773 62.2238 30.2773 73.7227C36.6118 73.7227 42.9463 73.7227 49.4727 73.7227C49.4727 68.8964 49.4727 64.0702 49.4727 59.0977C68.8531 59.0977 88.2335 59.0977 108.201 59.0977C108.201 72.0682 108.201 85.0388 108.201 98.4023C88.8208 98.4023 69.4404 98.4023 49.4727 98.4023C49.4727 93.5761 49.4727 88.7498 49.4727 83.7773C39.8202 83.7773 30.1677 83.7773 20.2227 83.7773C20.2227 69.2986 20.2227 54.8198 20.2227 39.9023C13.8128 39.9023 7.40293 39.9023 0.798828 39.9023C0.798828 26.9318 0.798828 13.9612 0.798828 0.597656ZM10.625 10.6523C10.625 16.9868 10.625 23.3213 10.625 29.8477C39.5825 29.8477 68.54 29.8477 98.375 29.8477C98.375 23.5132 98.375 17.1787 98.375 10.6523C69.4175 10.6523 40.46 10.6523 10.625 10.6523ZM59.5273 69.1523C59.5273 75.4868 59.5273 81.8213 59.5273 88.3477C72.3471 88.3477 85.1668 88.3477 98.375 88.3477C98.375 82.0132 98.375 75.6787 98.375 69.1523C85.5553 69.1523 72.7355 69.1523 59.5273 69.1523Z" fill="#332948"/>
</svg>
